<svg width="880" height="190" xmlns="http://www.w3.org/2000/svg">

    <defs>
      <linearGradient id="grad1" x1="0%" y1="0%" x2="100%" y2="0%">
        <stop offset="0%" stop-color="#ecd2bb"/>
        <stop offset="100%" stop-color="#a0aeee"/>
      </linearGradient>
      <linearGradient id="grad2" x1="0%" y1="0%" x2="100%" y2="0%">
        <stop offset="0%" stop-color="#a0aeee"/>
        <stop offset="100%" stop-color="#120fc7"/>
      </linearGradient>
      <linearGradient id="grad3" x1="0%" y1="0%" x2="100%" y2="0%">
        <stop offset="0%" stop-color="#5771ec"/>
        <stop offset="100%" stop-color="#ecd2bb"/>
      </linearGradient>
    </defs>
    
<rect width="880" height="190" fill="#0d1117" />
<rect x="40.0" y="69.07407407407408" width="7.407407407407407" height="7.407407407407407" fill="url(#grad3)" />
<rect x="47.407407407407405" y="69.07407407407408" width="7.407407407407407" height="7.407407407407407" fill="url(#grad2)" />
<rect x="54.81481481481482" y="69.07407407407408" width="7.407407407407407" height="7.407407407407407" fill="url(#grad2)" />
<rect x="62.22222222222222" y="69.07407407407408" width="7.407407407407407" height="7.407407407407407" fill="url(#grad2)" />
<rect x="69.62962962962963" y="69.07407407407408" width="7.407407407407407" height="7.407407407407407" fill="url(#grad1)" />
<rect x="54.81481481481482" y="76.48148148148148" width="7.407407407407407" height="7.407407407407407" fill="url(#grad3)" />
<rect x="54.81481481481482" y="83.88888888888889" width="7.407407407407407" height="7.407407407407407" fill="url(#grad1)" />
<rect x="54.81481481481482" y="91.2962962962963" width="7.407407407407407" height="7.407407407407407" fill="url(#grad1)" />
<rect x="54.81481481481482" y="98.70370370370371" width="7.407407407407407" height="7.407407407407407" fill="url(#grad1)" />
<rect x="54.81481481481482" y="106.11111111111111" width="7.407407407407407" height="7.407407407407407" fill="url(#grad1)" />
<rect x="40.0" y="113.51851851851852" width="7.407407407407407" height="7.407407407407407" fill="url(#grad3)" />
<rect x="47.407407407407405" y="113.51851851851852" width="7.407407407407407" height="7.407407407407407" fill="url(#grad2)" />
<rect x="54.81481481481482" y="113.51851851851852" width="7.407407407407407" height="7.407407407407407" fill="url(#grad3)" />
<rect x="62.22222222222222" y="113.51851851851852" width="7.407407407407407" height="7.407407407407407" fill="url(#grad3)" />
<rect x="69.62962962962963" y="113.51851851851852" width="7.407407407407407" height="7.407407407407407" fill="url(#grad3)" />
<rect x="99.25925925925927" y="69.07407407407408" width="7.407407407407407" height="7.407407407407407" fill="url(#grad2)" />
<rect x="99.25925925925927" y="76.48148148148148" width="7.407407407407407" height="7.407407407407407" fill="url(#grad3)" />
<rect x="128.88888888888889" y="69.07407407407408" width="7.407407407407407" height="7.407407407407407" fill="url(#grad1)" />
<rect x="158.51851851851853" y="69.07407407407408" width="7.407407407407407" height="7.407407407407407" fill="url(#grad2)" />
<rect x="128.88888888888889" y="76.48148148148148" width="7.407407407407407" height="7.407407407407407" fill="url(#grad2)" />
<rect x="136.2962962962963" y="76.48148148148148" width="7.407407407407407" height="7.407407407407407" fill="url(#grad3)" />
<rect x="151.11111111111111" y="76.48148148148148" width="7.407407407407407" height="7.407407407407407" fill="url(#grad2)" />
<rect x="158.51851851851853" y="76.48148148148148" width="7.407407407407407" height="7.407407407407407" fill="url(#grad3)" />
<rect x="128.88888888888889" y="83.88888888888889" width="7.407407407407407" height="7.407407407407407" fill="url(#grad3)" />
<rect x="143.7037037037037" y="83.88888888888889" width="7.407407407407407" height="7.407407407407407" fill="url(#grad3)" />
<rect x="158.51851851851853" y="83.88888888888889" width="7.407407407407407" height="7.407407407407407" fill="url(#grad1)" />
<rect x="128.88888888888889" y="91.2962962962963" width="7.407407407407407" height="7.407407407407407" fill="url(#grad3)" />
<rect x="143.7037037037037" y="91.2962962962963" width="7.407407407407407" height="7.407407407407407" fill="url(#grad1)" />
<rect x="158.51851851851853" y="91.2962962962963" width="7.407407407407407" height="7.407407407407407" fill="url(#grad1)" />
<rect x="128.88888888888889" y="98.70370370370371" width="7.407407407407407" height="7.407407407407407" fill="url(#grad3)" />
<rect x="158.51851851851853" y="98.70370370370371" width="7.407407407407407" height="7.407407407407407" fill="url(#grad3)" />
<rect x="128.88888888888889" y="106.11111111111111" width="7.407407407407407" height="7.407407407407407" fill="url(#grad1)" />
<rect x="158.51851851851853" y="106.11111111111111" width="7.407407407407407" height="7.407407407407407" fill="url(#grad2)" />
<rect x="128.88888888888889" y="113.51851851851852" width="7.407407407407407" height="7.407407407407407" fill="url(#grad3)" />
<rect x="158.51851851851853" y="113.51851851851852" width="7.407407407407407" height="7.407407407407407" fill="url(#grad3)" />
<rect x="217.77777777777777" y="69.07407407407408" width="7.407407407407407" height="7.407407407407407" fill="url(#grad2)" />
<rect x="225.1851851851852" y="69.07407407407408" width="7.407407407407407" height="7.407407407407407" fill="url(#grad2)" />
<rect x="232.59259259259258" y="69.07407407407408" width="7.407407407407407" height="7.407407407407407" fill="url(#grad1)" />
<rect x="240.0" y="69.07407407407408" width="7.407407407407407" height="7.407407407407407" fill="url(#grad1)" />
<rect x="247.40740740740742" y="69.07407407407408" width="7.407407407407407" height="7.407407407407407" fill="url(#grad2)" />
<rect x="217.77777777777777" y="76.48148148148148" width="7.407407407407407" height="7.407407407407407" fill="url(#grad1)" />
<rect x="217.77777777777777" y="83.88888888888889" width="7.407407407407407" height="7.407407407407407" fill="url(#grad3)" />
<rect x="217.77777777777777" y="91.2962962962963" width="7.407407407407407" height="7.407407407407407" fill="url(#grad1)" />
<rect x="225.1851851851852" y="91.2962962962963" width="7.407407407407407" height="7.407407407407407" fill="url(#grad1)" />
<rect x="232.59259259259258" y="91.2962962962963" width="7.407407407407407" height="7.407407407407407" fill="url(#grad2)" />
<rect x="240.0" y="91.2962962962963" width="7.407407407407407" height="7.407407407407407" fill="url(#grad2)" />
<rect x="217.77777777777777" y="98.70370370370371" width="7.407407407407407" height="7.407407407407407" fill="url(#grad1)" />
<rect x="217.77777777777777" y="106.11111111111111" width="7.407407407407407" height="7.407407407407407" fill="url(#grad2)" />
<rect x="217.77777777777777" y="113.51851851851852" width="7.407407407407407" height="7.407407407407407" fill="url(#grad3)" />
<rect x="262.22222222222223" y="69.07407407407408" width="7.407407407407407" height="7.407407407407407" fill="url(#grad3)" />
<rect x="291.85185185185185" y="69.07407407407408" width="7.407407407407407" height="7.407407407407407" fill="url(#grad1)" />
<rect x="262.22222222222223" y="76.48148148148148" width="7.407407407407407" height="7.407407407407407" fill="url(#grad2)" />
<rect x="291.85185185185185" y="76.48148148148148" width="7.407407407407407" height="7.407407407407407" fill="url(#grad2)" />
<rect x="262.22222222222223" y="83.88888888888889" width="7.407407407407407" height="7.407407407407407" fill="url(#grad1)" />
<rect x="291.85185185185185" y="83.88888888888889" width="7.407407407407407" height="7.407407407407407" fill="url(#grad3)" />
<rect x="262.22222222222223" y="91.2962962962963" width="7.407407407407407" height="7.407407407407407" fill="url(#grad2)" />
<rect x="291.85185185185185" y="91.2962962962963" width="7.407407407407407" height="7.407407407407407" fill="url(#grad2)" />
<rect x="262.22222222222223" y="98.70370370370371" width="7.407407407407407" height="7.407407407407407" fill="url(#grad1)" />
<rect x="291.85185185185185" y="98.70370370370371" width="7.407407407407407" height="7.407407407407407" fill="url(#grad2)" />
<rect x="262.22222222222223" y="106.11111111111111" width="7.407407407407407" height="7.407407407407407" fill="url(#grad1)" />
<rect x="291.85185185185185" y="106.11111111111111" width="7.407407407407407" height="7.407407407407407" fill="url(#grad3)" />
<rect x="269.6296296296296" y="113.51851851851852" width="7.407407407407407" height="7.407407407407407" fill="url(#grad1)" />
<rect x="277.03703703703707" y="113.51851851851852" width="7.407407407407407" height="7.407407407407407" fill="url(#grad2)" />
<rect x="284.44444444444446" y="113.51851851851852" width="7.407407407407407" height="7.407407407407407" fill="url(#grad3)" />
<rect x="306.6666666666667" y="69.07407407407408" width="7.407407407407407" height="7.407407407407407" fill="url(#grad3)" />
<rect x="306.6666666666667" y="76.48148148148148" width="7.407407407407407" height="7.407407407407407" fill="url(#grad1)" />
<rect x="306.6666666666667" y="83.88888888888889" width="7.407407407407407" height="7.407407407407407" fill="url(#grad2)" />
<rect x="306.6666666666667" y="91.2962962962963" width="7.407407407407407" height="7.407407407407407" fill="url(#grad3)" />
<rect x="306.6666666666667" y="98.70370370370371" width="7.407407407407407" height="7.407407407407407" fill="url(#grad3)" />
<rect x="306.6666666666667" y="106.11111111111111" width="7.407407407407407" height="7.407407407407407" fill="url(#grad3)" />
<rect x="306.6666666666667" y="113.51851851851852" width="7.407407407407407" height="7.407407407407407" fill="url(#grad3)" />
<rect x="314.0740740740741" y="113.51851851851852" width="7.407407407407407" height="7.407407407407407" fill="url(#grad2)" />
<rect x="321.48148148148147" y="113.51851851851852" width="7.407407407407407" height="7.407407407407407" fill="url(#grad1)" />
<rect x="328.8888888888889" y="113.51851851851852" width="7.407407407407407" height="7.407407407407407" fill="url(#grad3)" />
<rect x="336.2962962962963" y="113.51851851851852" width="7.407407407407407" height="7.407407407407407" fill="url(#grad1)" />
<rect x="351.1111111111111" y="69.07407407407408" width="7.407407407407407" height="7.407407407407407" fill="url(#grad3)" />
<rect x="351.1111111111111" y="76.48148148148148" width="7.407407407407407" height="7.407407407407407" fill="url(#grad3)" />
<rect x="351.1111111111111" y="83.88888888888889" width="7.407407407407407" height="7.407407407407407" fill="url(#grad1)" />
<rect x="351.1111111111111" y="91.2962962962963" width="7.407407407407407" height="7.407407407407407" fill="url(#grad2)" />
<rect x="351.1111111111111" y="98.70370370370371" width="7.407407407407407" height="7.407407407407407" fill="url(#grad3)" />
<rect x="351.1111111111111" y="106.11111111111111" width="7.407407407407407" height="7.407407407407407" fill="url(#grad3)" />
<rect x="351.1111111111111" y="113.51851851851852" width="7.407407407407407" height="7.407407407407407" fill="url(#grad1)" />
<rect x="358.51851851851853" y="113.51851851851852" width="7.407407407407407" height="7.407407407407407" fill="url(#grad3)" />
<rect x="365.9259259259259" y="113.51851851851852" width="7.407407407407407" height="7.407407407407407" fill="url(#grad2)" />
<rect x="373.3333333333333" y="113.51851851851852" width="7.407407407407407" height="7.407407407407407" fill="url(#grad3)" />
<rect x="380.74074074074076" y="113.51851851851852" width="7.407407407407407" height="7.407407407407407" fill="url(#grad2)" />
<rect x="447.4074074074074" y="69.07407407407408" width="7.407407407407407" height="7.407407407407407" fill="url(#grad2)" />
<rect x="454.81481481481484" y="69.07407407407408" width="7.407407407407407" height="7.407407407407407" fill="url(#grad3)" />
<rect x="462.22222222222223" y="69.07407407407408" width="7.407407407407407" height="7.407407407407407" fill="url(#grad2)" />
<rect x="469.6296296296296" y="69.07407407407408" width="7.407407407407407" height="7.407407407407407" fill="url(#grad1)" />
<rect x="440.0" y="76.48148148148148" width="7.407407407407407" height="7.407407407407407" fill="url(#grad2)" />
<rect x="440.0" y="83.88888888888889" width="7.407407407407407" height="7.407407407407407" fill="url(#grad2)" />
<rect x="447.4074074074074" y="91.2962962962963" width="7.407407407407407" height="7.407407407407407" fill="url(#grad1)" />
<rect x="454.81481481481484" y="91.2962962962963" width="7.407407407407407" height="7.407407407407407" fill="url(#grad1)" />
<rect x="462.22222222222223" y="91.2962962962963" width="7.407407407407407" height="7.407407407407407" fill="url(#grad3)" />
<rect x="469.6296296296296" y="98.70370370370371" width="7.407407407407407" height="7.407407407407407" fill="url(#grad3)" />
<rect x="469.6296296296296" y="106.11111111111111" width="7.407407407407407" height="7.407407407407407" fill="url(#grad3)" />
<rect x="440.0" y="113.51851851851852" width="7.407407407407407" height="7.407407407407407" fill="url(#grad2)" />
<rect x="447.4074074074074" y="113.51851851851852" width="7.407407407407407" height="7.407407407407407" fill="url(#grad1)" />
<rect x="454.81481481481484" y="113.51851851851852" width="7.407407407407407" height="7.407407407407407" fill="url(#grad2)" />
<rect x="462.22222222222223" y="113.51851851851852" width="7.407407407407407" height="7.407407407407407" fill="url(#grad3)" />
<rect x="484.44444444444446" y="69.07407407407408" width="7.407407407407407" height="7.407407407407407" fill="url(#grad3)" />
<rect x="491.85185185185185" y="69.07407407407408" width="7.407407407407407" height="7.407407407407407" fill="url(#grad3)" />
<rect x="499.25925925925924" y="69.07407407407408" width="7.407407407407407" height="7.407407407407407" fill="url(#grad3)" />
<rect x="506.6666666666667" y="69.07407407407408" width="7.407407407407407" height="7.407407407407407" fill="url(#grad3)" />
<rect x="514.0740740740741" y="69.07407407407408" width="7.407407407407407" height="7.407407407407407" fill="url(#grad2)" />
<rect x="499.25925925925924" y="76.48148148148148" width="7.407407407407407" height="7.407407407407407" fill="url(#grad1)" />
<rect x="499.25925925925924" y="83.88888888888889" width="7.407407407407407" height="7.407407407407407" fill="url(#grad3)" />
<rect x="499.25925925925924" y="91.2962962962963" width="7.407407407407407" height="7.407407407407407" fill="url(#grad1)" />
<rect x="499.25925925925924" y="98.70370370370371" width="7.407407407407407" height="7.407407407407407" fill="url(#grad3)" />
<rect x="499.25925925925924" y="106.11111111111111" width="7.407407407407407" height="7.407407407407407" fill="url(#grad1)" />
<rect x="499.25925925925924" y="113.51851851851852" width="7.407407407407407" height="7.407407407407407" fill="url(#grad2)" />
<rect x="536.2962962962963" y="69.07407407407408" width="7.407407407407407" height="7.407407407407407" fill="url(#grad3)" />
<rect x="543.7037037037037" y="69.07407407407408" width="7.407407407407407" height="7.407407407407407" fill="url(#grad3)" />
<rect x="551.1111111111111" y="69.07407407407408" width="7.407407407407407" height="7.407407407407407" fill="url(#grad2)" />
<rect x="528.8888888888889" y="76.48148148148148" width="7.407407407407407" height="7.407407407407407" fill="url(#grad3)" />
<rect x="558.5185185185185" y="76.48148148148148" width="7.407407407407407" height="7.407407407407407" fill="url(#grad1)" />
<rect x="528.8888888888889" y="83.88888888888889" width="7.407407407407407" height="7.407407407407407" fill="url(#grad2)" />
<rect x="558.5185185185185" y="83.88888888888889" width="7.407407407407407" height="7.407407407407407" fill="url(#grad2)" />
<rect x="528.8888888888889" y="91.2962962962963" width="7.407407407407407" height="7.407407407407407" fill="url(#grad3)" />
<rect x="536.2962962962963" y="91.2962962962963" width="7.407407407407407" height="7.407407407407407" fill="url(#grad1)" />
<rect x="543.7037037037037" y="91.2962962962963" width="7.407407407407407" height="7.407407407407407" fill="url(#grad1)" />
<rect x="551.1111111111111" y="91.2962962962963" width="7.407407407407407" height="7.407407407407407" fill="url(#grad1)" />
<rect x="558.5185185185185" y="91.2962962962963" width="7.407407407407407" height="7.407407407407407" fill="url(#grad2)" />
<rect x="528.8888888888889" y="98.70370370370371" width="7.407407407407407" height="7.407407407407407" fill="url(#grad2)" />
<rect x="558.5185185185185" y="98.70370370370371" width="7.407407407407407" height="7.407407407407407" fill="url(#grad2)" />
<rect x="528.8888888888889" y="106.11111111111111" width="7.407407407407407" height="7.407407407407407" fill="url(#grad3)" />
<rect x="558.5185185185185" y="106.11111111111111" width="7.407407407407407" height="7.407407407407407" fill="url(#grad1)" />
<rect x="528.8888888888889" y="113.51851851851852" width="7.407407407407407" height="7.407407407407407" fill="url(#grad3)" />
<rect x="558.5185185185185" y="113.51851851851852" width="7.407407407407407" height="7.407407407407407" fill="url(#grad1)" />
<rect x="580.7407407407408" y="69.07407407407408" width="7.407407407407407" height="7.407407407407407" fill="url(#grad1)" />
<rect x="588.1481481481482" y="69.07407407407408" width="7.407407407407407" height="7.407407407407407" fill="url(#grad3)" />
<rect x="595.5555555555555" y="69.07407407407408" width="7.407407407407407" height="7.407407407407407" fill="url(#grad1)" />
<rect x="573.3333333333334" y="76.48148148148148" width="7.407407407407407" height="7.407407407407407" fill="url(#grad3)" />
<rect x="602.9629629629629" y="76.48148148148148" width="7.407407407407407" height="7.407407407407407" fill="url(#grad3)" />
<rect x="573.3333333333334" y="83.88888888888889" width="7.407407407407407" height="7.407407407407407" fill="url(#grad2)" />
<rect x="573.3333333333334" y="91.2962962962963" width="7.407407407407407" height="7.407407407407407" fill="url(#grad3)" />
<rect x="573.3333333333334" y="98.70370370370371" width="7.407407407407407" height="7.407407407407407" fill="url(#grad2)" />
<rect x="573.3333333333334" y="106.11111111111111" width="7.407407407407407" height="7.407407407407407" fill="url(#grad2)" />
<rect x="602.9629629629629" y="106.11111111111111" width="7.407407407407407" height="7.407407407407407" fill="url(#grad2)" />
<rect x="580.7407407407408" y="113.51851851851852" width="7.407407407407407" height="7.407407407407407" fill="url(#grad1)" />
<rect x="588.1481481481482" y="113.51851851851852" width="7.407407407407407" height="7.407407407407407" fill="url(#grad2)" />
<rect x="595.5555555555555" y="113.51851851851852" width="7.407407407407407" height="7.407407407407407" fill="url(#grad3)" />
<rect x="617.7777777777778" y="69.07407407407408" width="7.407407407407407" height="7.407407407407407" fill="url(#grad2)" />
<rect x="647.4074074074074" y="69.07407407407408" width="7.407407407407407" height="7.407407407407407" fill="url(#grad3)" />
<rect x="617.7777777777778" y="76.48148148148148" width="7.407407407407407" height="7.407407407407407" fill="url(#grad1)" />
<rect x="640.0" y="76.48148148148148" width="7.407407407407407" height="7.407407407407407" fill="url(#grad3)" />
<rect x="617.7777777777778" y="83.88888888888889" width="7.407407407407407" height="7.407407407407407" fill="url(#grad1)" />
<rect x="632.5925925925926" y="83.88888888888889" width="7.407407407407407" height="7.407407407407407" fill="url(#grad3)" />
<rect x="617.7777777777778" y="91.2962962962963" width="7.407407407407407" height="7.407407407407407" fill="url(#grad1)" />
<rect x="625.1851851851852" y="91.2962962962963" width="7.407407407407407" height="7.407407407407407" fill="url(#grad2)" />
<rect x="617.7777777777778" y="98.70370370370371" width="7.407407407407407" height="7.407407407407407" fill="url(#grad2)" />
<rect x="632.5925925925926" y="98.70370370370371" width="7.407407407407407" height="7.407407407407407" fill="url(#grad1)" />
<rect x="617.7777777777778" y="106.11111111111111" width="7.407407407407407" height="7.407407407407407" fill="url(#grad1)" />
<rect x="640.0" y="106.11111111111111" width="7.407407407407407" height="7.407407407407407" fill="url(#grad3)" />
<rect x="617.7777777777778" y="113.51851851851852" width="7.407407407407407" height="7.407407407407407" fill="url(#grad1)" />
<rect x="647.4074074074074" y="113.51851851851852" width="7.407407407407407" height="7.407407407407407" fill="url(#grad3)" />
<rect x="706.6666666666666" y="69.07407407407408" width="7.407407407407407" height="7.407407407407407" fill="url(#grad3)" />
<rect x="714.0740740740741" y="69.07407407407408" width="7.407407407407407" height="7.407407407407407" fill="url(#grad1)" />
<rect x="721.4814814814815" y="69.07407407407408" width="7.407407407407407" height="7.407407407407407" fill="url(#grad3)" />
<rect x="728.8888888888889" y="69.07407407407408" width="7.407407407407407" height="7.407407407407407" fill="url(#grad1)" />
<rect x="706.6666666666666" y="76.48148148148148" width="7.407407407407407" height="7.407407407407407" fill="url(#grad3)" />
<rect x="736.2962962962963" y="76.48148148148148" width="7.407407407407407" height="7.407407407407407" fill="url(#grad2)" />
<rect x="706.6666666666666" y="83.88888888888889" width="7.407407407407407" height="7.407407407407407" fill="url(#grad1)" />
<rect x="736.2962962962963" y="83.88888888888889" width="7.407407407407407" height="7.407407407407407" fill="url(#grad1)" />
<rect x="706.6666666666666" y="91.2962962962963" width="7.407407407407407" height="7.407407407407407" fill="url(#grad1)" />
<rect x="736.2962962962963" y="91.2962962962963" width="7.407407407407407" height="7.407407407407407" fill="url(#grad3)" />
<rect x="706.6666666666666" y="98.70370370370371" width="7.407407407407407" height="7.407407407407407" fill="url(#grad1)" />
<rect x="736.2962962962963" y="98.70370370370371" width="7.407407407407407" height="7.407407407407407" fill="url(#grad2)" />
<rect x="706.6666666666666" y="106.11111111111111" width="7.407407407407407" height="7.407407407407407" fill="url(#grad1)" />
<rect x="736.2962962962963" y="106.11111111111111" width="7.407407407407407" height="7.407407407407407" fill="url(#grad2)" />
<rect x="706.6666666666666" y="113.51851851851852" width="7.407407407407407" height="7.407407407407407" fill="url(#grad3)" />
<rect x="714.0740740740741" y="113.51851851851852" width="7.407407407407407" height="7.407407407407407" fill="url(#grad3)" />
<rect x="721.4814814814815" y="113.51851851851852" width="7.407407407407407" height="7.407407407407407" fill="url(#grad3)" />
<rect x="728.8888888888889" y="113.51851851851852" width="7.407407407407407" height="7.407407407407407" fill="url(#grad3)" />
<rect x="751.1111111111111" y="69.07407407407408" width="7.407407407407407" height="7.407407407407407" fill="url(#grad2)" />
<rect x="758.5185185185185" y="69.07407407407408" width="7.407407407407407" height="7.407407407407407" fill="url(#grad1)" />
<rect x="765.925925925926" y="69.07407407407408" width="7.407407407407407" height="7.407407407407407" fill="url(#grad3)" />
<rect x="773.3333333333334" y="69.07407407407408" width="7.407407407407407" height="7.407407407407407" fill="url(#grad3)" />
<rect x="780.7407407407408" y="69.07407407407408" width="7.407407407407407" height="7.407407407407407" fill="url(#grad2)" />
<rect x="751.1111111111111" y="76.48148148148148" width="7.407407407407407" height="7.407407407407407" fill="url(#grad1)" />
<rect x="751.1111111111111" y="83.88888888888889" width="7.407407407407407" height="7.407407407407407" fill="url(#grad3)" />
<rect x="751.1111111111111" y="91.2962962962963" width="7.407407407407407" height="7.407407407407407" fill="url(#grad3)" />
<rect x="758.5185185185185" y="91.2962962962963" width="7.407407407407407" height="7.407407407407407" fill="url(#grad2)" />
<rect x="765.925925925926" y="91.2962962962963" width="7.407407407407407" height="7.407407407407407" fill="url(#grad2)" />
<rect x="773.3333333333334" y="91.2962962962963" width="7.407407407407407" height="7.407407407407407" fill="url(#grad1)" />
<rect x="751.1111111111111" y="98.70370370370371" width="7.407407407407407" height="7.407407407407407" fill="url(#grad2)" />
<rect x="751.1111111111111" y="106.11111111111111" width="7.407407407407407" height="7.407407407407407" fill="url(#grad2)" />
<rect x="751.1111111111111" y="113.51851851851852" width="7.407407407407407" height="7.407407407407407" fill="url(#grad2)" />
<rect x="758.5185185185185" y="113.51851851851852" width="7.407407407407407" height="7.407407407407407" fill="url(#grad1)" />
<rect x="765.925925925926" y="113.51851851851852" width="7.407407407407407" height="7.407407407407407" fill="url(#grad1)" />
<rect x="773.3333333333334" y="113.51851851851852" width="7.407407407407407" height="7.407407407407407" fill="url(#grad1)" />
<rect x="780.7407407407408" y="113.51851851851852" width="7.407407407407407" height="7.407407407407407" fill="url(#grad2)" />
<rect x="795.5555555555555" y="69.07407407407408" width="7.407407407407407" height="7.407407407407407" fill="url(#grad2)" />
<rect x="825.1851851851852" y="69.07407407407408" width="7.407407407407407" height="7.407407407407407" fill="url(#grad1)" />
<rect x="795.5555555555555" y="76.48148148148148" width="7.407407407407407" height="7.407407407407407" fill="url(#grad1)" />
<rect x="825.1851851851852" y="76.48148148148148" width="7.407407407407407" height="7.407407407407407" fill="url(#grad2)" />
<rect x="795.5555555555555" y="83.88888888888889" width="7.407407407407407" height="7.407407407407407" fill="url(#grad1)" />
<rect x="825.1851851851852" y="83.88888888888889" width="7.407407407407407" height="7.407407407407407" fill="url(#grad3)" />
<rect x="795.5555555555555" y="91.2962962962963" width="7.407407407407407" height="7.407407407407407" fill="url(#grad3)" />
<rect x="825.1851851851852" y="91.2962962962963" width="7.407407407407407" height="7.407407407407407" fill="url(#grad1)" />
<rect x="795.5555555555555" y="98.70370370370371" width="7.407407407407407" height="7.407407407407407" fill="url(#grad1)" />
<rect x="825.1851851851852" y="98.70370370370371" width="7.407407407407407" height="7.407407407407407" fill="url(#grad2)" />
<rect x="802.9629629629629" y="106.11111111111111" width="7.407407407407407" height="7.407407407407407" fill="url(#grad3)" />
<rect x="817.7777777777778" y="106.11111111111111" width="7.407407407407407" height="7.407407407407407" fill="url(#grad2)" />
<rect x="810.3703703703703" y="113.51851851851852" width="7.407407407407407" height="7.407407407407407" fill="url(#grad2)" />
<rect 
    x="0" y="0" 
    width="880" height="190" 
    fill="none" 
    stroke="#ecd2bb" 
    stroke-width="2" 
    stroke-dasharray="10,5"
    rx="20" ry="20"
/>
</svg>