<svg width="880" height="190" xmlns="http://www.w3.org/2000/svg">

    <defs>
      <linearGradient id="grad1" x1="0%" y1="0%" x2="100%" y2="0%">
        <stop offset="0%" stop-color="#a0aeee"/>
        <stop offset="100%" stop-color="#120fc7"/>
      </linearGradient>
    </defs>
    
<rect width="880" height="190" fill="#ebedf0" />
<rect x="0.0" y="67.98245614035088" width="7.719298245614035" height="7.719298245614035" fill="url(#grad1)" />
<rect x="7.719298245614035" y="67.98245614035088" width="7.719298245614035" height="7.719298245614035" fill="url(#grad1)" />
<rect x="15.43859649122807" y="67.98245614035088" width="7.719298245614035" height="7.719298245614035" fill="url(#grad1)" />
<rect x="23.157894736842106" y="67.98245614035088" width="7.719298245614035" height="7.719298245614035" fill="url(#grad1)" />
<rect x="30.87719298245614" y="67.98245614035088" width="7.719298245614035" height="7.719298245614035" fill="url(#grad1)" />
<rect x="15.43859649122807" y="75.70175438596492" width="7.719298245614035" height="7.719298245614035" fill="url(#grad1)" />
<rect x="15.43859649122807" y="83.42105263157895" width="7.719298245614035" height="7.719298245614035" fill="url(#grad1)" />
<rect x="15.43859649122807" y="91.14035087719299" width="7.719298245614035" height="7.719298245614035" fill="url(#grad1)" />
<rect x="15.43859649122807" y="98.85964912280701" width="7.719298245614035" height="7.719298245614035" fill="url(#grad1)" />
<rect x="15.43859649122807" y="106.57894736842105" width="7.719298245614035" height="7.719298245614035" fill="url(#grad1)" />
<rect x="0.0" y="114.2982456140351" width="7.719298245614035" height="7.719298245614035" fill="url(#grad1)" />
<rect x="7.719298245614035" y="114.2982456140351" width="7.719298245614035" height="7.719298245614035" fill="url(#grad1)" />
<rect x="15.43859649122807" y="114.2982456140351" width="7.719298245614035" height="7.719298245614035" fill="url(#grad1)" />
<rect x="23.157894736842106" y="114.2982456140351" width="7.719298245614035" height="7.719298245614035" fill="url(#grad1)" />
<rect x="30.87719298245614" y="114.2982456140351" width="7.719298245614035" height="7.719298245614035" fill="url(#grad1)" />
<rect x="100.35087719298245" y="67.98245614035088" width="7.719298245614035" height="7.719298245614035" fill="url(#grad1)" />
<rect x="108.0701754385965" y="67.98245614035088" width="7.719298245614035" height="7.719298245614035" fill="url(#grad1)" />
<rect x="115.78947368421052" y="67.98245614035088" width="7.719298245614035" height="7.719298245614035" fill="url(#grad1)" />
<rect x="92.63157894736842" y="75.70175438596492" width="7.719298245614035" height="7.719298245614035" fill="url(#grad1)" />
<rect x="123.50877192982456" y="75.70175438596492" width="7.719298245614035" height="7.719298245614035" fill="url(#grad1)" />
<rect x="92.63157894736842" y="83.42105263157895" width="7.719298245614035" height="7.719298245614035" fill="url(#grad1)" />
<rect x="123.50877192982456" y="83.42105263157895" width="7.719298245614035" height="7.719298245614035" fill="url(#grad1)" />
<rect x="92.63157894736842" y="91.14035087719299" width="7.719298245614035" height="7.719298245614035" fill="url(#grad1)" />
<rect x="100.35087719298245" y="91.14035087719299" width="7.719298245614035" height="7.719298245614035" fill="url(#grad1)" />
<rect x="108.0701754385965" y="91.14035087719299" width="7.719298245614035" height="7.719298245614035" fill="url(#grad1)" />
<rect x="115.78947368421052" y="91.14035087719299" width="7.719298245614035" height="7.719298245614035" fill="url(#grad1)" />
<rect x="123.50877192982456" y="91.14035087719299" width="7.719298245614035" height="7.719298245614035" fill="url(#grad1)" />
<rect x="92.63157894736842" y="98.85964912280701" width="7.719298245614035" height="7.719298245614035" fill="url(#grad1)" />
<rect x="123.50877192982456" y="98.85964912280701" width="7.719298245614035" height="7.719298245614035" fill="url(#grad1)" />
<rect x="92.63157894736842" y="106.57894736842105" width="7.719298245614035" height="7.719298245614035" fill="url(#grad1)" />
<rect x="123.50877192982456" y="106.57894736842105" width="7.719298245614035" height="7.719298245614035" fill="url(#grad1)" />
<rect x="92.63157894736842" y="114.2982456140351" width="7.719298245614035" height="7.719298245614035" fill="url(#grad1)" />
<rect x="123.50877192982456" y="114.2982456140351" width="7.719298245614035" height="7.719298245614035" fill="url(#grad1)" />
<rect x="138.94736842105263" y="67.98245614035088" width="7.719298245614035" height="7.719298245614035" fill="url(#grad1)" />
<rect x="169.82456140350877" y="67.98245614035088" width="7.719298245614035" height="7.719298245614035" fill="url(#grad1)" />
<rect x="138.94736842105263" y="75.70175438596492" width="7.719298245614035" height="7.719298245614035" fill="url(#grad1)" />
<rect x="146.66666666666666" y="75.70175438596492" width="7.719298245614035" height="7.719298245614035" fill="url(#grad1)" />
<rect x="162.10526315789474" y="75.70175438596492" width="7.719298245614035" height="7.719298245614035" fill="url(#grad1)" />
<rect x="169.82456140350877" y="75.70175438596492" width="7.719298245614035" height="7.719298245614035" fill="url(#grad1)" />
<rect x="138.94736842105263" y="83.42105263157895" width="7.719298245614035" height="7.719298245614035" fill="url(#grad1)" />
<rect x="154.3859649122807" y="83.42105263157895" width="7.719298245614035" height="7.719298245614035" fill="url(#grad1)" />
<rect x="169.82456140350877" y="83.42105263157895" width="7.719298245614035" height="7.719298245614035" fill="url(#grad1)" />
<rect x="138.94736842105263" y="91.14035087719299" width="7.719298245614035" height="7.719298245614035" fill="url(#grad1)" />
<rect x="154.3859649122807" y="91.14035087719299" width="7.719298245614035" height="7.719298245614035" fill="url(#grad1)" />
<rect x="169.82456140350877" y="91.14035087719299" width="7.719298245614035" height="7.719298245614035" fill="url(#grad1)" />
<rect x="138.94736842105263" y="98.85964912280701" width="7.719298245614035" height="7.719298245614035" fill="url(#grad1)" />
<rect x="169.82456140350877" y="98.85964912280701" width="7.719298245614035" height="7.719298245614035" fill="url(#grad1)" />
<rect x="138.94736842105263" y="106.57894736842105" width="7.719298245614035" height="7.719298245614035" fill="url(#grad1)" />
<rect x="169.82456140350877" y="106.57894736842105" width="7.719298245614035" height="7.719298245614035" fill="url(#grad1)" />
<rect x="138.94736842105263" y="114.2982456140351" width="7.719298245614035" height="7.719298245614035" fill="url(#grad1)" />
<rect x="169.82456140350877" y="114.2982456140351" width="7.719298245614035" height="7.719298245614035" fill="url(#grad1)" />
<rect x="231.57894736842104" y="67.98245614035088" width="7.719298245614035" height="7.719298245614035" fill="url(#grad1)" />
<rect x="239.2982456140351" y="67.98245614035088" width="7.719298245614035" height="7.719298245614035" fill="url(#grad1)" />
<rect x="247.01754385964912" y="67.98245614035088" width="7.719298245614035" height="7.719298245614035" fill="url(#grad1)" />
<rect x="254.73684210526315" y="67.98245614035088" width="7.719298245614035" height="7.719298245614035" fill="url(#grad1)" />
<rect x="262.4561403508772" y="67.98245614035088" width="7.719298245614035" height="7.719298245614035" fill="url(#grad1)" />
<rect x="231.57894736842104" y="75.70175438596492" width="7.719298245614035" height="7.719298245614035" fill="url(#grad1)" />
<rect x="231.57894736842104" y="83.42105263157895" width="7.719298245614035" height="7.719298245614035" fill="url(#grad1)" />
<rect x="231.57894736842104" y="91.14035087719299" width="7.719298245614035" height="7.719298245614035" fill="url(#grad1)" />
<rect x="239.2982456140351" y="91.14035087719299" width="7.719298245614035" height="7.719298245614035" fill="url(#grad1)" />
<rect x="247.01754385964912" y="91.14035087719299" width="7.719298245614035" height="7.719298245614035" fill="url(#grad1)" />
<rect x="254.73684210526315" y="91.14035087719299" width="7.719298245614035" height="7.719298245614035" fill="url(#grad1)" />
<rect x="231.57894736842104" y="98.85964912280701" width="7.719298245614035" height="7.719298245614035" fill="url(#grad1)" />
<rect x="231.57894736842104" y="106.57894736842105" width="7.719298245614035" height="7.719298245614035" fill="url(#grad1)" />
<rect x="231.57894736842104" y="114.2982456140351" width="7.719298245614035" height="7.719298245614035" fill="url(#grad1)" />
<rect x="277.89473684210526" y="67.98245614035088" width="7.719298245614035" height="7.719298245614035" fill="url(#grad1)" />
<rect x="308.7719298245614" y="67.98245614035088" width="7.719298245614035" height="7.719298245614035" fill="url(#grad1)" />
<rect x="277.89473684210526" y="75.70175438596492" width="7.719298245614035" height="7.719298245614035" fill="url(#grad1)" />
<rect x="308.7719298245614" y="75.70175438596492" width="7.719298245614035" height="7.719298245614035" fill="url(#grad1)" />
<rect x="277.89473684210526" y="83.42105263157895" width="7.719298245614035" height="7.719298245614035" fill="url(#grad1)" />
<rect x="308.7719298245614" y="83.42105263157895" width="7.719298245614035" height="7.719298245614035" fill="url(#grad1)" />
<rect x="277.89473684210526" y="91.14035087719299" width="7.719298245614035" height="7.719298245614035" fill="url(#grad1)" />
<rect x="308.7719298245614" y="91.14035087719299" width="7.719298245614035" height="7.719298245614035" fill="url(#grad1)" />
<rect x="277.89473684210526" y="98.85964912280701" width="7.719298245614035" height="7.719298245614035" fill="url(#grad1)" />
<rect x="308.7719298245614" y="98.85964912280701" width="7.719298245614035" height="7.719298245614035" fill="url(#grad1)" />
<rect x="277.89473684210526" y="106.57894736842105" width="7.719298245614035" height="7.719298245614035" fill="url(#grad1)" />
<rect x="308.7719298245614" y="106.57894736842105" width="7.719298245614035" height="7.719298245614035" fill="url(#grad1)" />
<rect x="285.6140350877193" y="114.2982456140351" width="7.719298245614035" height="7.719298245614035" fill="url(#grad1)" />
<rect x="293.3333333333333" y="114.2982456140351" width="7.719298245614035" height="7.719298245614035" fill="url(#grad1)" />
<rect x="301.05263157894734" y="114.2982456140351" width="7.719298245614035" height="7.719298245614035" fill="url(#grad1)" />
<rect x="324.2105263157895" y="67.98245614035088" width="7.719298245614035" height="7.719298245614035" fill="url(#grad1)" />
<rect x="324.2105263157895" y="75.70175438596492" width="7.719298245614035" height="7.719298245614035" fill="url(#grad1)" />
<rect x="324.2105263157895" y="83.42105263157895" width="7.719298245614035" height="7.719298245614035" fill="url(#grad1)" />
<rect x="324.2105263157895" y="91.14035087719299" width="7.719298245614035" height="7.719298245614035" fill="url(#grad1)" />
<rect x="324.2105263157895" y="98.85964912280701" width="7.719298245614035" height="7.719298245614035" fill="url(#grad1)" />
<rect x="324.2105263157895" y="106.57894736842105" width="7.719298245614035" height="7.719298245614035" fill="url(#grad1)" />
<rect x="324.2105263157895" y="114.2982456140351" width="7.719298245614035" height="7.719298245614035" fill="url(#grad1)" />
<rect x="331.9298245614035" y="114.2982456140351" width="7.719298245614035" height="7.719298245614035" fill="url(#grad1)" />
<rect x="339.64912280701753" y="114.2982456140351" width="7.719298245614035" height="7.719298245614035" fill="url(#grad1)" />
<rect x="347.36842105263156" y="114.2982456140351" width="7.719298245614035" height="7.719298245614035" fill="url(#grad1)" />
<rect x="355.0877192982456" y="114.2982456140351" width="7.719298245614035" height="7.719298245614035" fill="url(#grad1)" />
<rect x="370.5263157894737" y="67.98245614035088" width="7.719298245614035" height="7.719298245614035" fill="url(#grad1)" />
<rect x="370.5263157894737" y="75.70175438596492" width="7.719298245614035" height="7.719298245614035" fill="url(#grad1)" />
<rect x="370.5263157894737" y="83.42105263157895" width="7.719298245614035" height="7.719298245614035" fill="url(#grad1)" />
<rect x="370.5263157894737" y="91.14035087719299" width="7.719298245614035" height="7.719298245614035" fill="url(#grad1)" />
<rect x="370.5263157894737" y="98.85964912280701" width="7.719298245614035" height="7.719298245614035" fill="url(#grad1)" />
<rect x="370.5263157894737" y="106.57894736842105" width="7.719298245614035" height="7.719298245614035" fill="url(#grad1)" />
<rect x="370.5263157894737" y="114.2982456140351" width="7.719298245614035" height="7.719298245614035" fill="url(#grad1)" />
<rect x="378.2456140350877" y="114.2982456140351" width="7.719298245614035" height="7.719298245614035" fill="url(#grad1)" />
<rect x="385.96491228070175" y="114.2982456140351" width="7.719298245614035" height="7.719298245614035" fill="url(#grad1)" />
<rect x="393.6842105263158" y="114.2982456140351" width="7.719298245614035" height="7.719298245614035" fill="url(#grad1)" />
<rect x="401.4035087719298" y="114.2982456140351" width="7.719298245614035" height="7.719298245614035" fill="url(#grad1)" />
<rect x="470.87719298245617" y="67.98245614035088" width="7.719298245614035" height="7.719298245614035" fill="url(#grad1)" />
<rect x="478.5964912280702" y="67.98245614035088" width="7.719298245614035" height="7.719298245614035" fill="url(#grad1)" />
<rect x="486.3157894736842" y="67.98245614035088" width="7.719298245614035" height="7.719298245614035" fill="url(#grad1)" />
<rect x="494.03508771929825" y="67.98245614035088" width="7.719298245614035" height="7.719298245614035" fill="url(#grad1)" />
<rect x="463.1578947368421" y="75.70175438596492" width="7.719298245614035" height="7.719298245614035" fill="url(#grad1)" />
<rect x="463.1578947368421" y="83.42105263157895" width="7.719298245614035" height="7.719298245614035" fill="url(#grad1)" />
<rect x="470.87719298245617" y="91.14035087719299" width="7.719298245614035" height="7.719298245614035" fill="url(#grad1)" />
<rect x="478.5964912280702" y="91.14035087719299" width="7.719298245614035" height="7.719298245614035" fill="url(#grad1)" />
<rect x="486.3157894736842" y="91.14035087719299" width="7.719298245614035" height="7.719298245614035" fill="url(#grad1)" />
<rect x="494.03508771929825" y="98.85964912280701" width="7.719298245614035" height="7.719298245614035" fill="url(#grad1)" />
<rect x="494.03508771929825" y="106.57894736842105" width="7.719298245614035" height="7.719298245614035" fill="url(#grad1)" />
<rect x="463.1578947368421" y="114.2982456140351" width="7.719298245614035" height="7.719298245614035" fill="url(#grad1)" />
<rect x="470.87719298245617" y="114.2982456140351" width="7.719298245614035" height="7.719298245614035" fill="url(#grad1)" />
<rect x="478.5964912280702" y="114.2982456140351" width="7.719298245614035" height="7.719298245614035" fill="url(#grad1)" />
<rect x="486.3157894736842" y="114.2982456140351" width="7.719298245614035" height="7.719298245614035" fill="url(#grad1)" />
<rect x="509.4736842105263" y="67.98245614035088" width="7.719298245614035" height="7.719298245614035" fill="url(#grad1)" />
<rect x="517.1929824561404" y="67.98245614035088" width="7.719298245614035" height="7.719298245614035" fill="url(#grad1)" />
<rect x="524.9122807017544" y="67.98245614035088" width="7.719298245614035" height="7.719298245614035" fill="url(#grad1)" />
<rect x="532.6315789473684" y="67.98245614035088" width="7.719298245614035" height="7.719298245614035" fill="url(#grad1)" />
<rect x="540.3508771929825" y="67.98245614035088" width="7.719298245614035" height="7.719298245614035" fill="url(#grad1)" />
<rect x="524.9122807017544" y="75.70175438596492" width="7.719298245614035" height="7.719298245614035" fill="url(#grad1)" />
<rect x="524.9122807017544" y="83.42105263157895" width="7.719298245614035" height="7.719298245614035" fill="url(#grad1)" />
<rect x="524.9122807017544" y="91.14035087719299" width="7.719298245614035" height="7.719298245614035" fill="url(#grad1)" />
<rect x="524.9122807017544" y="98.85964912280701" width="7.719298245614035" height="7.719298245614035" fill="url(#grad1)" />
<rect x="524.9122807017544" y="106.57894736842105" width="7.719298245614035" height="7.719298245614035" fill="url(#grad1)" />
<rect x="524.9122807017544" y="114.2982456140351" width="7.719298245614035" height="7.719298245614035" fill="url(#grad1)" />
<rect x="563.5087719298245" y="67.98245614035088" width="7.719298245614035" height="7.719298245614035" fill="url(#grad1)" />
<rect x="571.2280701754386" y="67.98245614035088" width="7.719298245614035" height="7.719298245614035" fill="url(#grad1)" />
<rect x="578.9473684210526" y="67.98245614035088" width="7.719298245614035" height="7.719298245614035" fill="url(#grad1)" />
<rect x="555.7894736842105" y="75.70175438596492" width="7.719298245614035" height="7.719298245614035" fill="url(#grad1)" />
<rect x="586.6666666666666" y="75.70175438596492" width="7.719298245614035" height="7.719298245614035" fill="url(#grad1)" />
<rect x="555.7894736842105" y="83.42105263157895" width="7.719298245614035" height="7.719298245614035" fill="url(#grad1)" />
<rect x="586.6666666666666" y="83.42105263157895" width="7.719298245614035" height="7.719298245614035" fill="url(#grad1)" />
<rect x="555.7894736842105" y="91.14035087719299" width="7.719298245614035" height="7.719298245614035" fill="url(#grad1)" />
<rect x="563.5087719298245" y="91.14035087719299" width="7.719298245614035" height="7.719298245614035" fill="url(#grad1)" />
<rect x="571.2280701754386" y="91.14035087719299" width="7.719298245614035" height="7.719298245614035" fill="url(#grad1)" />
<rect x="578.9473684210526" y="91.14035087719299" width="7.719298245614035" height="7.719298245614035" fill="url(#grad1)" />
<rect x="586.6666666666666" y="91.14035087719299" width="7.719298245614035" height="7.719298245614035" fill="url(#grad1)" />
<rect x="555.7894736842105" y="98.85964912280701" width="7.719298245614035" height="7.719298245614035" fill="url(#grad1)" />
<rect x="586.6666666666666" y="98.85964912280701" width="7.719298245614035" height="7.719298245614035" fill="url(#grad1)" />
<rect x="555.7894736842105" y="106.57894736842105" width="7.719298245614035" height="7.719298245614035" fill="url(#grad1)" />
<rect x="586.6666666666666" y="106.57894736842105" width="7.719298245614035" height="7.719298245614035" fill="url(#grad1)" />
<rect x="555.7894736842105" y="114.2982456140351" width="7.719298245614035" height="7.719298245614035" fill="url(#grad1)" />
<rect x="586.6666666666666" y="114.2982456140351" width="7.719298245614035" height="7.719298245614035" fill="url(#grad1)" />
<rect x="609.8245614035088" y="67.98245614035088" width="7.719298245614035" height="7.719298245614035" fill="url(#grad1)" />
<rect x="617.5438596491229" y="67.98245614035088" width="7.719298245614035" height="7.719298245614035" fill="url(#grad1)" />
<rect x="625.2631578947369" y="67.98245614035088" width="7.719298245614035" height="7.719298245614035" fill="url(#grad1)" />
<rect x="602.1052631578947" y="75.70175438596492" width="7.719298245614035" height="7.719298245614035" fill="url(#grad1)" />
<rect x="632.9824561403509" y="75.70175438596492" width="7.719298245614035" height="7.719298245614035" fill="url(#grad1)" />
<rect x="602.1052631578947" y="83.42105263157895" width="7.719298245614035" height="7.719298245614035" fill="url(#grad1)" />
<rect x="602.1052631578947" y="91.14035087719299" width="7.719298245614035" height="7.719298245614035" fill="url(#grad1)" />
<rect x="602.1052631578947" y="98.85964912280701" width="7.719298245614035" height="7.719298245614035" fill="url(#grad1)" />
<rect x="602.1052631578947" y="106.57894736842105" width="7.719298245614035" height="7.719298245614035" fill="url(#grad1)" />
<rect x="632.9824561403509" y="106.57894736842105" width="7.719298245614035" height="7.719298245614035" fill="url(#grad1)" />
<rect x="609.8245614035088" y="114.2982456140351" width="7.719298245614035" height="7.719298245614035" fill="url(#grad1)" />
<rect x="617.5438596491229" y="114.2982456140351" width="7.719298245614035" height="7.719298245614035" fill="url(#grad1)" />
<rect x="625.2631578947369" y="114.2982456140351" width="7.719298245614035" height="7.719298245614035" fill="url(#grad1)" />
<rect x="648.421052631579" y="67.98245614035088" width="7.719298245614035" height="7.719298245614035" fill="url(#grad1)" />
<rect x="679.2982456140351" y="67.98245614035088" width="7.719298245614035" height="7.719298245614035" fill="url(#grad1)" />
<rect x="648.421052631579" y="75.70175438596492" width="7.719298245614035" height="7.719298245614035" fill="url(#grad1)" />
<rect x="671.578947368421" y="75.70175438596492" width="7.719298245614035" height="7.719298245614035" fill="url(#grad1)" />
<rect x="648.421052631579" y="83.42105263157895" width="7.719298245614035" height="7.719298245614035" fill="url(#grad1)" />
<rect x="663.859649122807" y="83.42105263157895" width="7.719298245614035" height="7.719298245614035" fill="url(#grad1)" />
<rect x="648.421052631579" y="91.14035087719299" width="7.719298245614035" height="7.719298245614035" fill="url(#grad1)" />
<rect x="656.140350877193" y="91.14035087719299" width="7.719298245614035" height="7.719298245614035" fill="url(#grad1)" />
<rect x="648.421052631579" y="98.85964912280701" width="7.719298245614035" height="7.719298245614035" fill="url(#grad1)" />
<rect x="663.859649122807" y="98.85964912280701" width="7.719298245614035" height="7.719298245614035" fill="url(#grad1)" />
<rect x="648.421052631579" y="106.57894736842105" width="7.719298245614035" height="7.719298245614035" fill="url(#grad1)" />
<rect x="671.578947368421" y="106.57894736842105" width="7.719298245614035" height="7.719298245614035" fill="url(#grad1)" />
<rect x="648.421052631579" y="114.2982456140351" width="7.719298245614035" height="7.719298245614035" fill="url(#grad1)" />
<rect x="679.2982456140351" y="114.2982456140351" width="7.719298245614035" height="7.719298245614035" fill="url(#grad1)" />
<rect x="741.0526315789474" y="67.98245614035088" width="7.719298245614035" height="7.719298245614035" fill="url(#grad1)" />
<rect x="748.7719298245614" y="67.98245614035088" width="7.719298245614035" height="7.719298245614035" fill="url(#grad1)" />
<rect x="756.4912280701755" y="67.98245614035088" width="7.719298245614035" height="7.719298245614035" fill="url(#grad1)" />
<rect x="764.2105263157895" y="67.98245614035088" width="7.719298245614035" height="7.719298245614035" fill="url(#grad1)" />
<rect x="741.0526315789474" y="75.70175438596492" width="7.719298245614035" height="7.719298245614035" fill="url(#grad1)" />
<rect x="771.9298245614035" y="75.70175438596492" width="7.719298245614035" height="7.719298245614035" fill="url(#grad1)" />
<rect x="741.0526315789474" y="83.42105263157895" width="7.719298245614035" height="7.719298245614035" fill="url(#grad1)" />
<rect x="771.9298245614035" y="83.42105263157895" width="7.719298245614035" height="7.719298245614035" fill="url(#grad1)" />
<rect x="741.0526315789474" y="91.14035087719299" width="7.719298245614035" height="7.719298245614035" fill="url(#grad1)" />
<rect x="771.9298245614035" y="91.14035087719299" width="7.719298245614035" height="7.719298245614035" fill="url(#grad1)" />
<rect x="741.0526315789474" y="98.85964912280701" width="7.719298245614035" height="7.719298245614035" fill="url(#grad1)" />
<rect x="771.9298245614035" y="98.85964912280701" width="7.719298245614035" height="7.719298245614035" fill="url(#grad1)" />
<rect x="741.0526315789474" y="106.57894736842105" width="7.719298245614035" height="7.719298245614035" fill="url(#grad1)" />
<rect x="771.9298245614035" y="106.57894736842105" width="7.719298245614035" height="7.719298245614035" fill="url(#grad1)" />
<rect x="741.0526315789474" y="114.2982456140351" width="7.719298245614035" height="7.719298245614035" fill="url(#grad1)" />
<rect x="748.7719298245614" y="114.2982456140351" width="7.719298245614035" height="7.719298245614035" fill="url(#grad1)" />
<rect x="756.4912280701755" y="114.2982456140351" width="7.719298245614035" height="7.719298245614035" fill="url(#grad1)" />
<rect x="764.2105263157895" y="114.2982456140351" width="7.719298245614035" height="7.719298245614035" fill="url(#grad1)" />
<rect x="787.3684210526316" y="67.98245614035088" width="7.719298245614035" height="7.719298245614035" fill="url(#grad1)" />
<rect x="795.0877192982456" y="67.98245614035088" width="7.719298245614035" height="7.719298245614035" fill="url(#grad1)" />
<rect x="802.8070175438596" y="67.98245614035088" width="7.719298245614035" height="7.719298245614035" fill="url(#grad1)" />
<rect x="810.5263157894736" y="67.98245614035088" width="7.719298245614035" height="7.719298245614035" fill="url(#grad1)" />
<rect x="818.2456140350877" y="67.98245614035088" width="7.719298245614035" height="7.719298245614035" fill="url(#grad1)" />
<rect x="787.3684210526316" y="75.70175438596492" width="7.719298245614035" height="7.719298245614035" fill="url(#grad1)" />
<rect x="787.3684210526316" y="83.42105263157895" width="7.719298245614035" height="7.719298245614035" fill="url(#grad1)" />
<rect x="787.3684210526316" y="91.14035087719299" width="7.719298245614035" height="7.719298245614035" fill="url(#grad1)" />
<rect x="795.0877192982456" y="91.14035087719299" width="7.719298245614035" height="7.719298245614035" fill="url(#grad1)" />
<rect x="802.8070175438596" y="91.14035087719299" width="7.719298245614035" height="7.719298245614035" fill="url(#grad1)" />
<rect x="810.5263157894736" y="91.14035087719299" width="7.719298245614035" height="7.719298245614035" fill="url(#grad1)" />
<rect x="787.3684210526316" y="98.85964912280701" width="7.719298245614035" height="7.719298245614035" fill="url(#grad1)" />
<rect x="787.3684210526316" y="106.57894736842105" width="7.719298245614035" height="7.719298245614035" fill="url(#grad1)" />
<rect x="787.3684210526316" y="114.2982456140351" width="7.719298245614035" height="7.719298245614035" fill="url(#grad1)" />
<rect x="795.0877192982456" y="114.2982456140351" width="7.719298245614035" height="7.719298245614035" fill="url(#grad1)" />
<rect x="802.8070175438596" y="114.2982456140351" width="7.719298245614035" height="7.719298245614035" fill="url(#grad1)" />
<rect x="810.5263157894736" y="114.2982456140351" width="7.719298245614035" height="7.719298245614035" fill="url(#grad1)" />
<rect x="818.2456140350877" y="114.2982456140351" width="7.719298245614035" height="7.719298245614035" fill="url(#grad1)" />
<rect x="833.6842105263158" y="67.98245614035088" width="7.719298245614035" height="7.719298245614035" fill="url(#grad1)" />
<rect x="864.561403508772" y="67.98245614035088" width="7.719298245614035" height="7.719298245614035" fill="url(#grad1)" />
<rect x="833.6842105263158" y="75.70175438596492" width="7.719298245614035" height="7.719298245614035" fill="url(#grad1)" />
<rect x="864.561403508772" y="75.70175438596492" width="7.719298245614035" height="7.719298245614035" fill="url(#grad1)" />
<rect x="833.6842105263158" y="83.42105263157895" width="7.719298245614035" height="7.719298245614035" fill="url(#grad1)" />
<rect x="864.561403508772" y="83.42105263157895" width="7.719298245614035" height="7.719298245614035" fill="url(#grad1)" />
<rect x="833.6842105263158" y="91.14035087719299" width="7.719298245614035" height="7.719298245614035" fill="url(#grad1)" />
<rect x="864.561403508772" y="91.14035087719299" width="7.719298245614035" height="7.719298245614035" fill="url(#grad1)" />
<rect x="833.6842105263158" y="98.85964912280701" width="7.719298245614035" height="7.719298245614035" fill="url(#grad1)" />
<rect x="864.561403508772" y="98.85964912280701" width="7.719298245614035" height="7.719298245614035" fill="url(#grad1)" />
<rect x="841.4035087719299" y="106.57894736842105" width="7.719298245614035" height="7.719298245614035" fill="url(#grad1)" />
<rect x="856.8421052631579" y="106.57894736842105" width="7.719298245614035" height="7.719298245614035" fill="url(#grad1)" />
<rect x="849.1228070175439" y="114.2982456140351" width="7.719298245614035" height="7.719298245614035" fill="url(#grad1)" />
<rect x="0" y="0" width="880" height="190" fill="none" stroke="#196bbd" stroke-width="4" />
</svg>