<svg width="880" height="190" xmlns="http://www.w3.org/2000/svg">

    <defs>
      <linearGradient id="grad1" x1="0%" y1="0%" x2="100%" y2="0%">
        <stop offset="0%" stop-color="#ecd2bb"/>
        <stop offset="100%" stop-color="#a0aeee"/>
      </linearGradient>
      <linearGradient id="grad2" x1="0%" y1="0%" x2="100%" y2="0%">
        <stop offset="0%" stop-color="#a0aeee"/>
        <stop offset="100%" stop-color="#120fc7"/>
      </linearGradient>
      <linearGradient id="grad3" x1="0%" y1="0%" x2="100%" y2="0%">
        <stop offset="0%" stop-color="#5771ec"/>
        <stop offset="100%" stop-color="#ecd2bb"/>
      </linearGradient>
    </defs>
    
<rect width="880" height="190" fill="#ebedf0" />
<rect x="50.0" y="50.0" width="7.017543859649122" height="7.017543859649122" fill="url(#grad1)" />
<rect x="57.01754385964912" y="50.0" width="7.017543859649122" height="7.017543859649122" fill="url(#grad3)" />
<rect x="64.03508771929825" y="50.0" width="7.017543859649122" height="7.017543859649122" fill="url(#grad3)" />
<rect x="71.05263157894737" y="50.0" width="7.017543859649122" height="7.017543859649122" fill="url(#grad2)" />
<rect x="78.0701754385965" y="50.0" width="7.017543859649122" height="7.017543859649122" fill="url(#grad1)" />
<rect x="64.03508771929825" y="57.01754385964912" width="7.017543859649122" height="7.017543859649122" fill="url(#grad1)" />
<rect x="64.03508771929825" y="64.03508771929825" width="7.017543859649122" height="7.017543859649122" fill="url(#grad1)" />
<rect x="64.03508771929825" y="71.05263157894737" width="7.017543859649122" height="7.017543859649122" fill="url(#grad3)" />
<rect x="64.03508771929825" y="78.0701754385965" width="7.017543859649122" height="7.017543859649122" fill="url(#grad3)" />
<rect x="64.03508771929825" y="85.08771929824562" width="7.017543859649122" height="7.017543859649122" fill="url(#grad3)" />
<rect x="50.0" y="92.10526315789474" width="7.017543859649122" height="7.017543859649122" fill="url(#grad2)" />
<rect x="57.01754385964912" y="92.10526315789474" width="7.017543859649122" height="7.017543859649122" fill="url(#grad2)" />
<rect x="64.03508771929825" y="92.10526315789474" width="7.017543859649122" height="7.017543859649122" fill="url(#grad2)" />
<rect x="71.05263157894737" y="92.10526315789474" width="7.017543859649122" height="7.017543859649122" fill="url(#grad1)" />
<rect x="78.0701754385965" y="92.10526315789474" width="7.017543859649122" height="7.017543859649122" fill="url(#grad1)" />
<rect x="141.22807017543857" y="50.0" width="7.017543859649122" height="7.017543859649122" fill="url(#grad3)" />
<rect x="148.24561403508773" y="50.0" width="7.017543859649122" height="7.017543859649122" fill="url(#grad2)" />
<rect x="155.26315789473682" y="50.0" width="7.017543859649122" height="7.017543859649122" fill="url(#grad2)" />
<rect x="134.21052631578948" y="57.01754385964912" width="7.017543859649122" height="7.017543859649122" fill="url(#grad3)" />
<rect x="162.28070175438597" y="57.01754385964912" width="7.017543859649122" height="7.017543859649122" fill="url(#grad1)" />
<rect x="134.21052631578948" y="64.03508771929825" width="7.017543859649122" height="7.017543859649122" fill="url(#grad1)" />
<rect x="162.28070175438597" y="64.03508771929825" width="7.017543859649122" height="7.017543859649122" fill="url(#grad1)" />
<rect x="134.21052631578948" y="71.05263157894737" width="7.017543859649122" height="7.017543859649122" fill="url(#grad1)" />
<rect x="141.22807017543857" y="71.05263157894737" width="7.017543859649122" height="7.017543859649122" fill="url(#grad3)" />
<rect x="148.24561403508773" y="71.05263157894737" width="7.017543859649122" height="7.017543859649122" fill="url(#grad1)" />
<rect x="155.26315789473682" y="71.05263157894737" width="7.017543859649122" height="7.017543859649122" fill="url(#grad2)" />
<rect x="162.28070175438597" y="71.05263157894737" width="7.017543859649122" height="7.017543859649122" fill="url(#grad3)" />
<rect x="134.21052631578948" y="78.0701754385965" width="7.017543859649122" height="7.017543859649122" fill="url(#grad3)" />
<rect x="162.28070175438597" y="78.0701754385965" width="7.017543859649122" height="7.017543859649122" fill="url(#grad1)" />
<rect x="134.21052631578948" y="85.08771929824562" width="7.017543859649122" height="7.017543859649122" fill="url(#grad3)" />
<rect x="162.28070175438597" y="85.08771929824562" width="7.017543859649122" height="7.017543859649122" fill="url(#grad1)" />
<rect x="134.21052631578948" y="92.10526315789474" width="7.017543859649122" height="7.017543859649122" fill="url(#grad3)" />
<rect x="162.28070175438597" y="92.10526315789474" width="7.017543859649122" height="7.017543859649122" fill="url(#grad3)" />
<rect x="176.31578947368422" y="50.0" width="7.017543859649122" height="7.017543859649122" fill="url(#grad2)" />
<rect x="204.38596491228068" y="50.0" width="7.017543859649122" height="7.017543859649122" fill="url(#grad3)" />
<rect x="176.31578947368422" y="57.01754385964912" width="7.017543859649122" height="7.017543859649122" fill="url(#grad3)" />
<rect x="183.33333333333331" y="57.01754385964912" width="7.017543859649122" height="7.017543859649122" fill="url(#grad3)" />
<rect x="197.36842105263156" y="57.01754385964912" width="7.017543859649122" height="7.017543859649122" fill="url(#grad2)" />
<rect x="204.38596491228068" y="57.01754385964912" width="7.017543859649122" height="7.017543859649122" fill="url(#grad3)" />
<rect x="176.31578947368422" y="64.03508771929825" width="7.017543859649122" height="7.017543859649122" fill="url(#grad1)" />
<rect x="190.35087719298244" y="64.03508771929825" width="7.017543859649122" height="7.017543859649122" fill="url(#grad3)" />
<rect x="204.38596491228068" y="64.03508771929825" width="7.017543859649122" height="7.017543859649122" fill="url(#grad2)" />
<rect x="176.31578947368422" y="71.05263157894737" width="7.017543859649122" height="7.017543859649122" fill="url(#grad3)" />
<rect x="190.35087719298244" y="71.05263157894737" width="7.017543859649122" height="7.017543859649122" fill="url(#grad1)" />
<rect x="204.38596491228068" y="71.05263157894737" width="7.017543859649122" height="7.017543859649122" fill="url(#grad3)" />
<rect x="176.31578947368422" y="78.0701754385965" width="7.017543859649122" height="7.017543859649122" fill="url(#grad2)" />
<rect x="204.38596491228068" y="78.0701754385965" width="7.017543859649122" height="7.017543859649122" fill="url(#grad1)" />
<rect x="176.31578947368422" y="85.08771929824562" width="7.017543859649122" height="7.017543859649122" fill="url(#grad1)" />
<rect x="204.38596491228068" y="85.08771929824562" width="7.017543859649122" height="7.017543859649122" fill="url(#grad2)" />
<rect x="176.31578947368422" y="92.10526315789474" width="7.017543859649122" height="7.017543859649122" fill="url(#grad2)" />
<rect x="204.38596491228068" y="92.10526315789474" width="7.017543859649122" height="7.017543859649122" fill="url(#grad2)" />
<rect x="260.52631578947364" y="50.0" width="7.017543859649122" height="7.017543859649122" fill="url(#grad2)" />
<rect x="267.5438596491228" y="50.0" width="7.017543859649122" height="7.017543859649122" fill="url(#grad1)" />
<rect x="274.56140350877195" y="50.0" width="7.017543859649122" height="7.017543859649122" fill="url(#grad2)" />
<rect x="281.57894736842104" y="50.0" width="7.017543859649122" height="7.017543859649122" fill="url(#grad3)" />
<rect x="288.59649122807014" y="50.0" width="7.017543859649122" height="7.017543859649122" fill="url(#grad1)" />
<rect x="260.52631578947364" y="57.01754385964912" width="7.017543859649122" height="7.017543859649122" fill="url(#grad1)" />
<rect x="260.52631578947364" y="64.03508771929825" width="7.017543859649122" height="7.017543859649122" fill="url(#grad1)" />
<rect x="260.52631578947364" y="71.05263157894737" width="7.017543859649122" height="7.017543859649122" fill="url(#grad1)" />
<rect x="267.5438596491228" y="71.05263157894737" width="7.017543859649122" height="7.017543859649122" fill="url(#grad2)" />
<rect x="274.56140350877195" y="71.05263157894737" width="7.017543859649122" height="7.017543859649122" fill="url(#grad1)" />
<rect x="281.57894736842104" y="71.05263157894737" width="7.017543859649122" height="7.017543859649122" fill="url(#grad3)" />
<rect x="260.52631578947364" y="78.0701754385965" width="7.017543859649122" height="7.017543859649122" fill="url(#grad1)" />
<rect x="260.52631578947364" y="85.08771929824562" width="7.017543859649122" height="7.017543859649122" fill="url(#grad2)" />
<rect x="260.52631578947364" y="92.10526315789474" width="7.017543859649122" height="7.017543859649122" fill="url(#grad3)" />
<rect x="302.63157894736844" y="50.0" width="7.017543859649122" height="7.017543859649122" fill="url(#grad1)" />
<rect x="330.7017543859649" y="50.0" width="7.017543859649122" height="7.017543859649122" fill="url(#grad1)" />
<rect x="302.63157894736844" y="57.01754385964912" width="7.017543859649122" height="7.017543859649122" fill="url(#grad3)" />
<rect x="330.7017543859649" y="57.01754385964912" width="7.017543859649122" height="7.017543859649122" fill="url(#grad1)" />
<rect x="302.63157894736844" y="64.03508771929825" width="7.017543859649122" height="7.017543859649122" fill="url(#grad1)" />
<rect x="330.7017543859649" y="64.03508771929825" width="7.017543859649122" height="7.017543859649122" fill="url(#grad1)" />
<rect x="302.63157894736844" y="71.05263157894737" width="7.017543859649122" height="7.017543859649122" fill="url(#grad3)" />
<rect x="330.7017543859649" y="71.05263157894737" width="7.017543859649122" height="7.017543859649122" fill="url(#grad3)" />
<rect x="302.63157894736844" y="78.0701754385965" width="7.017543859649122" height="7.017543859649122" fill="url(#grad3)" />
<rect x="330.7017543859649" y="78.0701754385965" width="7.017543859649122" height="7.017543859649122" fill="url(#grad2)" />
<rect x="302.63157894736844" y="85.08771929824562" width="7.017543859649122" height="7.017543859649122" fill="url(#grad1)" />
<rect x="330.7017543859649" y="85.08771929824562" width="7.017543859649122" height="7.017543859649122" fill="url(#grad2)" />
<rect x="309.64912280701753" y="92.10526315789474" width="7.017543859649122" height="7.017543859649122" fill="url(#grad1)" />
<rect x="316.66666666666663" y="92.10526315789474" width="7.017543859649122" height="7.017543859649122" fill="url(#grad3)" />
<rect x="323.6842105263158" y="92.10526315789474" width="7.017543859649122" height="7.017543859649122" fill="url(#grad2)" />
<rect x="344.7368421052631" y="50.0" width="7.017543859649122" height="7.017543859649122" fill="url(#grad3)" />
<rect x="344.7368421052631" y="57.01754385964912" width="7.017543859649122" height="7.017543859649122" fill="url(#grad1)" />
<rect x="344.7368421052631" y="64.03508771929825" width="7.017543859649122" height="7.017543859649122" fill="url(#grad2)" />
<rect x="344.7368421052631" y="71.05263157894737" width="7.017543859649122" height="7.017543859649122" fill="url(#grad1)" />
<rect x="344.7368421052631" y="78.0701754385965" width="7.017543859649122" height="7.017543859649122" fill="url(#grad3)" />
<rect x="344.7368421052631" y="85.08771929824562" width="7.017543859649122" height="7.017543859649122" fill="url(#grad1)" />
<rect x="344.7368421052631" y="92.10526315789474" width="7.017543859649122" height="7.017543859649122" fill="url(#grad3)" />
<rect x="351.7543859649123" y="92.10526315789474" width="7.017543859649122" height="7.017543859649122" fill="url(#grad3)" />
<rect x="358.77192982456137" y="92.10526315789474" width="7.017543859649122" height="7.017543859649122" fill="url(#grad2)" />
<rect x="365.7894736842105" y="92.10526315789474" width="7.017543859649122" height="7.017543859649122" fill="url(#grad1)" />
<rect x="372.8070175438596" y="92.10526315789474" width="7.017543859649122" height="7.017543859649122" fill="url(#grad3)" />
<rect x="386.84210526315786" y="50.0" width="7.017543859649122" height="7.017543859649122" fill="url(#grad2)" />
<rect x="386.84210526315786" y="57.01754385964912" width="7.017543859649122" height="7.017543859649122" fill="url(#grad2)" />
<rect x="386.84210526315786" y="64.03508771929825" width="7.017543859649122" height="7.017543859649122" fill="url(#grad1)" />
<rect x="386.84210526315786" y="71.05263157894737" width="7.017543859649122" height="7.017543859649122" fill="url(#grad1)" />
<rect x="386.84210526315786" y="78.0701754385965" width="7.017543859649122" height="7.017543859649122" fill="url(#grad3)" />
<rect x="386.84210526315786" y="85.08771929824562" width="7.017543859649122" height="7.017543859649122" fill="url(#grad3)" />
<rect x="386.84210526315786" y="92.10526315789474" width="7.017543859649122" height="7.017543859649122" fill="url(#grad3)" />
<rect x="393.859649122807" y="92.10526315789474" width="7.017543859649122" height="7.017543859649122" fill="url(#grad3)" />
<rect x="400.8771929824561" y="92.10526315789474" width="7.017543859649122" height="7.017543859649122" fill="url(#grad3)" />
<rect x="407.89473684210526" y="92.10526315789474" width="7.017543859649122" height="7.017543859649122" fill="url(#grad2)" />
<rect x="414.91228070175436" y="92.10526315789474" width="7.017543859649122" height="7.017543859649122" fill="url(#grad3)" />
<rect x="478.0701754385965" y="50.0" width="7.017543859649122" height="7.017543859649122" fill="url(#grad1)" />
<rect x="485.0877192982456" y="50.0" width="7.017543859649122" height="7.017543859649122" fill="url(#grad1)" />
<rect x="492.10526315789474" y="50.0" width="7.017543859649122" height="7.017543859649122" fill="url(#grad2)" />
<rect x="499.12280701754383" y="50.0" width="7.017543859649122" height="7.017543859649122" fill="url(#grad3)" />
<rect x="471.05263157894734" y="57.01754385964912" width="7.017543859649122" height="7.017543859649122" fill="url(#grad2)" />
<rect x="471.05263157894734" y="64.03508771929825" width="7.017543859649122" height="7.017543859649122" fill="url(#grad1)" />
<rect x="478.0701754385965" y="71.05263157894737" width="7.017543859649122" height="7.017543859649122" fill="url(#grad1)" />
<rect x="485.0877192982456" y="71.05263157894737" width="7.017543859649122" height="7.017543859649122" fill="url(#grad2)" />
<rect x="492.10526315789474" y="71.05263157894737" width="7.017543859649122" height="7.017543859649122" fill="url(#grad1)" />
<rect x="499.12280701754383" y="78.0701754385965" width="7.017543859649122" height="7.017543859649122" fill="url(#grad3)" />
<rect x="499.12280701754383" y="85.08771929824562" width="7.017543859649122" height="7.017543859649122" fill="url(#grad2)" />
<rect x="471.05263157894734" y="92.10526315789474" width="7.017543859649122" height="7.017543859649122" fill="url(#grad3)" />
<rect x="478.0701754385965" y="92.10526315789474" width="7.017543859649122" height="7.017543859649122" fill="url(#grad1)" />
<rect x="485.0877192982456" y="92.10526315789474" width="7.017543859649122" height="7.017543859649122" fill="url(#grad3)" />
<rect x="492.10526315789474" y="92.10526315789474" width="7.017543859649122" height="7.017543859649122" fill="url(#grad2)" />
<rect x="513.1578947368421" y="50.0" width="7.017543859649122" height="7.017543859649122" fill="url(#grad1)" />
<rect x="520.1754385964912" y="50.0" width="7.017543859649122" height="7.017543859649122" fill="url(#grad3)" />
<rect x="527.1929824561403" y="50.0" width="7.017543859649122" height="7.017543859649122" fill="url(#grad3)" />
<rect x="534.2105263157894" y="50.0" width="7.017543859649122" height="7.017543859649122" fill="url(#grad2)" />
<rect x="541.2280701754386" y="50.0" width="7.017543859649122" height="7.017543859649122" fill="url(#grad3)" />
<rect x="527.1929824561403" y="57.01754385964912" width="7.017543859649122" height="7.017543859649122" fill="url(#grad1)" />
<rect x="527.1929824561403" y="64.03508771929825" width="7.017543859649122" height="7.017543859649122" fill="url(#grad2)" />
<rect x="527.1929824561403" y="71.05263157894737" width="7.017543859649122" height="7.017543859649122" fill="url(#grad2)" />
<rect x="527.1929824561403" y="78.0701754385965" width="7.017543859649122" height="7.017543859649122" fill="url(#grad2)" />
<rect x="527.1929824561403" y="85.08771929824562" width="7.017543859649122" height="7.017543859649122" fill="url(#grad2)" />
<rect x="527.1929824561403" y="92.10526315789474" width="7.017543859649122" height="7.017543859649122" fill="url(#grad3)" />
<rect x="562.280701754386" y="50.0" width="7.017543859649122" height="7.017543859649122" fill="url(#grad2)" />
<rect x="569.2982456140351" y="50.0" width="7.017543859649122" height="7.017543859649122" fill="url(#grad2)" />
<rect x="576.3157894736842" y="50.0" width="7.017543859649122" height="7.017543859649122" fill="url(#grad1)" />
<rect x="555.2631578947369" y="57.01754385964912" width="7.017543859649122" height="7.017543859649122" fill="url(#grad2)" />
<rect x="583.3333333333333" y="57.01754385964912" width="7.017543859649122" height="7.017543859649122" fill="url(#grad1)" />
<rect x="555.2631578947369" y="64.03508771929825" width="7.017543859649122" height="7.017543859649122" fill="url(#grad1)" />
<rect x="583.3333333333333" y="64.03508771929825" width="7.017543859649122" height="7.017543859649122" fill="url(#grad2)" />
<rect x="555.2631578947369" y="71.05263157894737" width="7.017543859649122" height="7.017543859649122" fill="url(#grad1)" />
<rect x="562.280701754386" y="71.05263157894737" width="7.017543859649122" height="7.017543859649122" fill="url(#grad2)" />
<rect x="569.2982456140351" y="71.05263157894737" width="7.017543859649122" height="7.017543859649122" fill="url(#grad2)" />
<rect x="576.3157894736842" y="71.05263157894737" width="7.017543859649122" height="7.017543859649122" fill="url(#grad2)" />
<rect x="583.3333333333333" y="71.05263157894737" width="7.017543859649122" height="7.017543859649122" fill="url(#grad3)" />
<rect x="555.2631578947369" y="78.0701754385965" width="7.017543859649122" height="7.017543859649122" fill="url(#grad1)" />
<rect x="583.3333333333333" y="78.0701754385965" width="7.017543859649122" height="7.017543859649122" fill="url(#grad3)" />
<rect x="555.2631578947369" y="85.08771929824562" width="7.017543859649122" height="7.017543859649122" fill="url(#grad3)" />
<rect x="583.3333333333333" y="85.08771929824562" width="7.017543859649122" height="7.017543859649122" fill="url(#grad2)" />
<rect x="555.2631578947369" y="92.10526315789474" width="7.017543859649122" height="7.017543859649122" fill="url(#grad3)" />
<rect x="583.3333333333333" y="92.10526315789474" width="7.017543859649122" height="7.017543859649122" fill="url(#grad2)" />
<rect x="604.3859649122807" y="50.0" width="7.017543859649122" height="7.017543859649122" fill="url(#grad1)" />
<rect x="611.4035087719298" y="50.0" width="7.017543859649122" height="7.017543859649122" fill="url(#grad1)" />
<rect x="618.421052631579" y="50.0" width="7.017543859649122" height="7.017543859649122" fill="url(#grad3)" />
<rect x="597.3684210526316" y="57.01754385964912" width="7.017543859649122" height="7.017543859649122" fill="url(#grad2)" />
<rect x="625.438596491228" y="57.01754385964912" width="7.017543859649122" height="7.017543859649122" fill="url(#grad2)" />
<rect x="597.3684210526316" y="64.03508771929825" width="7.017543859649122" height="7.017543859649122" fill="url(#grad2)" />
<rect x="597.3684210526316" y="71.05263157894737" width="7.017543859649122" height="7.017543859649122" fill="url(#grad2)" />
<rect x="597.3684210526316" y="78.0701754385965" width="7.017543859649122" height="7.017543859649122" fill="url(#grad1)" />
<rect x="597.3684210526316" y="85.08771929824562" width="7.017543859649122" height="7.017543859649122" fill="url(#grad1)" />
<rect x="625.438596491228" y="85.08771929824562" width="7.017543859649122" height="7.017543859649122" fill="url(#grad3)" />
<rect x="604.3859649122807" y="92.10526315789474" width="7.017543859649122" height="7.017543859649122" fill="url(#grad2)" />
<rect x="611.4035087719298" y="92.10526315789474" width="7.017543859649122" height="7.017543859649122" fill="url(#grad2)" />
<rect x="618.421052631579" y="92.10526315789474" width="7.017543859649122" height="7.017543859649122" fill="url(#grad2)" />
<rect x="639.4736842105262" y="50.0" width="7.017543859649122" height="7.017543859649122" fill="url(#grad2)" />
<rect x="667.5438596491227" y="50.0" width="7.017543859649122" height="7.017543859649122" fill="url(#grad3)" />
<rect x="639.4736842105262" y="57.01754385964912" width="7.017543859649122" height="7.017543859649122" fill="url(#grad1)" />
<rect x="660.5263157894736" y="57.01754385964912" width="7.017543859649122" height="7.017543859649122" fill="url(#grad3)" />
<rect x="639.4736842105262" y="64.03508771929825" width="7.017543859649122" height="7.017543859649122" fill="url(#grad2)" />
<rect x="653.5087719298245" y="64.03508771929825" width="7.017543859649122" height="7.017543859649122" fill="url(#grad1)" />
<rect x="639.4736842105262" y="71.05263157894737" width="7.017543859649122" height="7.017543859649122" fill="url(#grad1)" />
<rect x="646.4912280701755" y="71.05263157894737" width="7.017543859649122" height="7.017543859649122" fill="url(#grad2)" />
<rect x="639.4736842105262" y="78.0701754385965" width="7.017543859649122" height="7.017543859649122" fill="url(#grad3)" />
<rect x="653.5087719298245" y="78.0701754385965" width="7.017543859649122" height="7.017543859649122" fill="url(#grad1)" />
<rect x="639.4736842105262" y="85.08771929824562" width="7.017543859649122" height="7.017543859649122" fill="url(#grad1)" />
<rect x="660.5263157894736" y="85.08771929824562" width="7.017543859649122" height="7.017543859649122" fill="url(#grad1)" />
<rect x="639.4736842105262" y="92.10526315789474" width="7.017543859649122" height="7.017543859649122" fill="url(#grad2)" />
<rect x="667.5438596491227" y="92.10526315789474" width="7.017543859649122" height="7.017543859649122" fill="url(#grad2)" />
<rect x="723.6842105263157" y="50.0" width="7.017543859649122" height="7.017543859649122" fill="url(#grad2)" />
<rect x="730.7017543859648" y="50.0" width="7.017543859649122" height="7.017543859649122" fill="url(#grad3)" />
<rect x="737.719298245614" y="50.0" width="7.017543859649122" height="7.017543859649122" fill="url(#grad1)" />
<rect x="744.7368421052631" y="50.0" width="7.017543859649122" height="7.017543859649122" fill="url(#grad1)" />
<rect x="723.6842105263157" y="57.01754385964912" width="7.017543859649122" height="7.017543859649122" fill="url(#grad2)" />
<rect x="751.7543859649122" y="57.01754385964912" width="7.017543859649122" height="7.017543859649122" fill="url(#grad1)" />
<rect x="723.6842105263157" y="64.03508771929825" width="7.017543859649122" height="7.017543859649122" fill="url(#grad3)" />
<rect x="751.7543859649122" y="64.03508771929825" width="7.017543859649122" height="7.017543859649122" fill="url(#grad3)" />
<rect x="723.6842105263157" y="71.05263157894737" width="7.017543859649122" height="7.017543859649122" fill="url(#grad2)" />
<rect x="751.7543859649122" y="71.05263157894737" width="7.017543859649122" height="7.017543859649122" fill="url(#grad3)" />
<rect x="723.6842105263157" y="78.0701754385965" width="7.017543859649122" height="7.017543859649122" fill="url(#grad3)" />
<rect x="751.7543859649122" y="78.0701754385965" width="7.017543859649122" height="7.017543859649122" fill="url(#grad3)" />
<rect x="723.6842105263157" y="85.08771929824562" width="7.017543859649122" height="7.017543859649122" fill="url(#grad3)" />
<rect x="751.7543859649122" y="85.08771929824562" width="7.017543859649122" height="7.017543859649122" fill="url(#grad2)" />
<rect x="723.6842105263157" y="92.10526315789474" width="7.017543859649122" height="7.017543859649122" fill="url(#grad3)" />
<rect x="730.7017543859648" y="92.10526315789474" width="7.017543859649122" height="7.017543859649122" fill="url(#grad2)" />
<rect x="737.719298245614" y="92.10526315789474" width="7.017543859649122" height="7.017543859649122" fill="url(#grad2)" />
<rect x="744.7368421052631" y="92.10526315789474" width="7.017543859649122" height="7.017543859649122" fill="url(#grad1)" />
<rect x="765.7894736842105" y="50.0" width="7.017543859649122" height="7.017543859649122" fill="url(#grad2)" />
<rect x="772.8070175438596" y="50.0" width="7.017543859649122" height="7.017543859649122" fill="url(#grad2)" />
<rect x="779.8245614035087" y="50.0" width="7.017543859649122" height="7.017543859649122" fill="url(#grad2)" />
<rect x="786.8421052631578" y="50.0" width="7.017543859649122" height="7.017543859649122" fill="url(#grad3)" />
<rect x="793.859649122807" y="50.0" width="7.017543859649122" height="7.017543859649122" fill="url(#grad1)" />
<rect x="765.7894736842105" y="57.01754385964912" width="7.017543859649122" height="7.017543859649122" fill="url(#grad3)" />
<rect x="765.7894736842105" y="64.03508771929825" width="7.017543859649122" height="7.017543859649122" fill="url(#grad1)" />
<rect x="765.7894736842105" y="71.05263157894737" width="7.017543859649122" height="7.017543859649122" fill="url(#grad3)" />
<rect x="772.8070175438596" y="71.05263157894737" width="7.017543859649122" height="7.017543859649122" fill="url(#grad2)" />
<rect x="779.8245614035087" y="71.05263157894737" width="7.017543859649122" height="7.017543859649122" fill="url(#grad1)" />
<rect x="786.8421052631578" y="71.05263157894737" width="7.017543859649122" height="7.017543859649122" fill="url(#grad3)" />
<rect x="765.7894736842105" y="78.0701754385965" width="7.017543859649122" height="7.017543859649122" fill="url(#grad2)" />
<rect x="765.7894736842105" y="85.08771929824562" width="7.017543859649122" height="7.017543859649122" fill="url(#grad1)" />
<rect x="765.7894736842105" y="92.10526315789474" width="7.017543859649122" height="7.017543859649122" fill="url(#grad1)" />
<rect x="772.8070175438596" y="92.10526315789474" width="7.017543859649122" height="7.017543859649122" fill="url(#grad2)" />
<rect x="779.8245614035087" y="92.10526315789474" width="7.017543859649122" height="7.017543859649122" fill="url(#grad1)" />
<rect x="786.8421052631578" y="92.10526315789474" width="7.017543859649122" height="7.017543859649122" fill="url(#grad3)" />
<rect x="793.859649122807" y="92.10526315789474" width="7.017543859649122" height="7.017543859649122" fill="url(#grad1)" />
<rect x="807.8947368421052" y="50.0" width="7.017543859649122" height="7.017543859649122" fill="url(#grad2)" />
<rect x="835.9649122807017" y="50.0" width="7.017543859649122" height="7.017543859649122" fill="url(#grad2)" />
<rect x="807.8947368421052" y="57.01754385964912" width="7.017543859649122" height="7.017543859649122" fill="url(#grad1)" />
<rect x="835.9649122807017" y="57.01754385964912" width="7.017543859649122" height="7.017543859649122" fill="url(#grad2)" />
<rect x="807.8947368421052" y="64.03508771929825" width="7.017543859649122" height="7.017543859649122" fill="url(#grad3)" />
<rect x="835.9649122807017" y="64.03508771929825" width="7.017543859649122" height="7.017543859649122" fill="url(#grad1)" />
<rect x="807.8947368421052" y="71.05263157894737" width="7.017543859649122" height="7.017543859649122" fill="url(#grad1)" />
<rect x="835.9649122807017" y="71.05263157894737" width="7.017543859649122" height="7.017543859649122" fill="url(#grad2)" />
<rect x="807.8947368421052" y="78.0701754385965" width="7.017543859649122" height="7.017543859649122" fill="url(#grad2)" />
<rect x="835.9649122807017" y="78.0701754385965" width="7.017543859649122" height="7.017543859649122" fill="url(#grad1)" />
<rect x="814.9122807017543" y="85.08771929824562" width="7.017543859649122" height="7.017543859649122" fill="url(#grad3)" />
<rect x="828.9473684210526" y="85.08771929824562" width="7.017543859649122" height="7.017543859649122" fill="url(#grad2)" />
<rect x="821.9298245614035" y="92.10526315789474" width="7.017543859649122" height="7.017543859649122" fill="url(#grad2)" />
<rect x="0" y="0" width="880" height="190" fill="none" stroke="#196bbd" stroke-width="4" />
</svg>