<svg width="880" height="190" xmlns="http://www.w3.org/2000/svg">

    <defs>
      <linearGradient id="grad1" x1="0%" y1="0%" x2="100%" y2="0%">
        <stop offset="0%" stop-color="#ecd2bb"/>
        <stop offset="100%" stop-color="#a0aeee"/>
      </linearGradient>
      <linearGradient id="grad2" x1="0%" y1="0%" x2="100%" y2="0%">
        <stop offset="0%" stop-color="#a0aeee"/>
        <stop offset="100%" stop-color="#120fc7"/>
      </linearGradient>
      <linearGradient id="grad3" x1="0%" y1="0%" x2="100%" y2="0%">
        <stop offset="0%" stop-color="#5771ec"/>
        <stop offset="100%" stop-color="#ecd2bb"/>
      </linearGradient>
    </defs>
    
<rect width="880" height="190" fill="#ebedf0" />
<rect x="40.0" y="40.0" width="7.017543859649122" height="7.017543859649122" fill="url(#grad3)" />
<rect x="47.01754385964912" y="40.0" width="7.017543859649122" height="7.017543859649122" fill="url(#grad2)" />
<rect x="54.03508771929825" y="40.0" width="7.017543859649122" height="7.017543859649122" fill="url(#grad3)" />
<rect x="61.05263157894737" y="40.0" width="7.017543859649122" height="7.017543859649122" fill="url(#grad3)" />
<rect x="68.0701754385965" y="40.0" width="7.017543859649122" height="7.017543859649122" fill="url(#grad1)" />
<rect x="54.03508771929825" y="47.01754385964912" width="7.017543859649122" height="7.017543859649122" fill="url(#grad2)" />
<rect x="54.03508771929825" y="54.03508771929825" width="7.017543859649122" height="7.017543859649122" fill="url(#grad3)" />
<rect x="54.03508771929825" y="61.05263157894737" width="7.017543859649122" height="7.017543859649122" fill="url(#grad1)" />
<rect x="54.03508771929825" y="68.0701754385965" width="7.017543859649122" height="7.017543859649122" fill="url(#grad2)" />
<rect x="54.03508771929825" y="75.08771929824562" width="7.017543859649122" height="7.017543859649122" fill="url(#grad1)" />
<rect x="40.0" y="82.10526315789474" width="7.017543859649122" height="7.017543859649122" fill="url(#grad3)" />
<rect x="47.01754385964912" y="82.10526315789474" width="7.017543859649122" height="7.017543859649122" fill="url(#grad3)" />
<rect x="54.03508771929825" y="82.10526315789474" width="7.017543859649122" height="7.017543859649122" fill="url(#grad3)" />
<rect x="61.05263157894737" y="82.10526315789474" width="7.017543859649122" height="7.017543859649122" fill="url(#grad3)" />
<rect x="68.0701754385965" y="82.10526315789474" width="7.017543859649122" height="7.017543859649122" fill="url(#grad2)" />
<rect x="131.22807017543857" y="40.0" width="7.017543859649122" height="7.017543859649122" fill="url(#grad2)" />
<rect x="138.24561403508773" y="40.0" width="7.017543859649122" height="7.017543859649122" fill="url(#grad1)" />
<rect x="145.26315789473682" y="40.0" width="7.017543859649122" height="7.017543859649122" fill="url(#grad2)" />
<rect x="124.21052631578947" y="47.01754385964912" width="7.017543859649122" height="7.017543859649122" fill="url(#grad1)" />
<rect x="152.28070175438597" y="47.01754385964912" width="7.017543859649122" height="7.017543859649122" fill="url(#grad3)" />
<rect x="124.21052631578947" y="54.03508771929825" width="7.017543859649122" height="7.017543859649122" fill="url(#grad1)" />
<rect x="152.28070175438597" y="54.03508771929825" width="7.017543859649122" height="7.017543859649122" fill="url(#grad3)" />
<rect x="124.21052631578947" y="61.05263157894737" width="7.017543859649122" height="7.017543859649122" fill="url(#grad3)" />
<rect x="131.22807017543857" y="61.05263157894737" width="7.017543859649122" height="7.017543859649122" fill="url(#grad1)" />
<rect x="138.24561403508773" y="61.05263157894737" width="7.017543859649122" height="7.017543859649122" fill="url(#grad1)" />
<rect x="145.26315789473682" y="61.05263157894737" width="7.017543859649122" height="7.017543859649122" fill="url(#grad2)" />
<rect x="152.28070175438597" y="61.05263157894737" width="7.017543859649122" height="7.017543859649122" fill="url(#grad3)" />
<rect x="124.21052631578947" y="68.0701754385965" width="7.017543859649122" height="7.017543859649122" fill="url(#grad3)" />
<rect x="152.28070175438597" y="68.0701754385965" width="7.017543859649122" height="7.017543859649122" fill="url(#grad3)" />
<rect x="124.21052631578947" y="75.08771929824562" width="7.017543859649122" height="7.017543859649122" fill="url(#grad1)" />
<rect x="152.28070175438597" y="75.08771929824562" width="7.017543859649122" height="7.017543859649122" fill="url(#grad2)" />
<rect x="124.21052631578947" y="82.10526315789474" width="7.017543859649122" height="7.017543859649122" fill="url(#grad3)" />
<rect x="152.28070175438597" y="82.10526315789474" width="7.017543859649122" height="7.017543859649122" fill="url(#grad1)" />
<rect x="166.31578947368422" y="40.0" width="7.017543859649122" height="7.017543859649122" fill="url(#grad2)" />
<rect x="194.38596491228068" y="40.0" width="7.017543859649122" height="7.017543859649122" fill="url(#grad2)" />
<rect x="166.31578947368422" y="47.01754385964912" width="7.017543859649122" height="7.017543859649122" fill="url(#grad3)" />
<rect x="173.33333333333331" y="47.01754385964912" width="7.017543859649122" height="7.017543859649122" fill="url(#grad1)" />
<rect x="187.36842105263156" y="47.01754385964912" width="7.017543859649122" height="7.017543859649122" fill="url(#grad1)" />
<rect x="194.38596491228068" y="47.01754385964912" width="7.017543859649122" height="7.017543859649122" fill="url(#grad2)" />
<rect x="166.31578947368422" y="54.03508771929825" width="7.017543859649122" height="7.017543859649122" fill="url(#grad2)" />
<rect x="180.35087719298244" y="54.03508771929825" width="7.017543859649122" height="7.017543859649122" fill="url(#grad2)" />
<rect x="194.38596491228068" y="54.03508771929825" width="7.017543859649122" height="7.017543859649122" fill="url(#grad1)" />
<rect x="166.31578947368422" y="61.05263157894737" width="7.017543859649122" height="7.017543859649122" fill="url(#grad2)" />
<rect x="180.35087719298244" y="61.05263157894737" width="7.017543859649122" height="7.017543859649122" fill="url(#grad2)" />
<rect x="194.38596491228068" y="61.05263157894737" width="7.017543859649122" height="7.017543859649122" fill="url(#grad3)" />
<rect x="166.31578947368422" y="68.0701754385965" width="7.017543859649122" height="7.017543859649122" fill="url(#grad2)" />
<rect x="194.38596491228068" y="68.0701754385965" width="7.017543859649122" height="7.017543859649122" fill="url(#grad2)" />
<rect x="166.31578947368422" y="75.08771929824562" width="7.017543859649122" height="7.017543859649122" fill="url(#grad2)" />
<rect x="194.38596491228068" y="75.08771929824562" width="7.017543859649122" height="7.017543859649122" fill="url(#grad1)" />
<rect x="166.31578947368422" y="82.10526315789474" width="7.017543859649122" height="7.017543859649122" fill="url(#grad2)" />
<rect x="194.38596491228068" y="82.10526315789474" width="7.017543859649122" height="7.017543859649122" fill="url(#grad1)" />
<rect x="250.52631578947367" y="40.0" width="7.017543859649122" height="7.017543859649122" fill="url(#grad2)" />
<rect x="257.5438596491228" y="40.0" width="7.017543859649122" height="7.017543859649122" fill="url(#grad2)" />
<rect x="264.56140350877195" y="40.0" width="7.017543859649122" height="7.017543859649122" fill="url(#grad3)" />
<rect x="271.57894736842104" y="40.0" width="7.017543859649122" height="7.017543859649122" fill="url(#grad1)" />
<rect x="278.59649122807014" y="40.0" width="7.017543859649122" height="7.017543859649122" fill="url(#grad2)" />
<rect x="250.52631578947367" y="47.01754385964912" width="7.017543859649122" height="7.017543859649122" fill="url(#grad2)" />
<rect x="250.52631578947367" y="54.03508771929825" width="7.017543859649122" height="7.017543859649122" fill="url(#grad3)" />
<rect x="250.52631578947367" y="61.05263157894737" width="7.017543859649122" height="7.017543859649122" fill="url(#grad1)" />
<rect x="257.5438596491228" y="61.05263157894737" width="7.017543859649122" height="7.017543859649122" fill="url(#grad1)" />
<rect x="264.56140350877195" y="61.05263157894737" width="7.017543859649122" height="7.017543859649122" fill="url(#grad2)" />
<rect x="271.57894736842104" y="61.05263157894737" width="7.017543859649122" height="7.017543859649122" fill="url(#grad2)" />
<rect x="250.52631578947367" y="68.0701754385965" width="7.017543859649122" height="7.017543859649122" fill="url(#grad2)" />
<rect x="250.52631578947367" y="75.08771929824562" width="7.017543859649122" height="7.017543859649122" fill="url(#grad1)" />
<rect x="250.52631578947367" y="82.10526315789474" width="7.017543859649122" height="7.017543859649122" fill="url(#grad2)" />
<rect x="292.63157894736844" y="40.0" width="7.017543859649122" height="7.017543859649122" fill="url(#grad1)" />
<rect x="320.7017543859649" y="40.0" width="7.017543859649122" height="7.017543859649122" fill="url(#grad3)" />
<rect x="292.63157894736844" y="47.01754385964912" width="7.017543859649122" height="7.017543859649122" fill="url(#grad3)" />
<rect x="320.7017543859649" y="47.01754385964912" width="7.017543859649122" height="7.017543859649122" fill="url(#grad1)" />
<rect x="292.63157894736844" y="54.03508771929825" width="7.017543859649122" height="7.017543859649122" fill="url(#grad2)" />
<rect x="320.7017543859649" y="54.03508771929825" width="7.017543859649122" height="7.017543859649122" fill="url(#grad1)" />
<rect x="292.63157894736844" y="61.05263157894737" width="7.017543859649122" height="7.017543859649122" fill="url(#grad2)" />
<rect x="320.7017543859649" y="61.05263157894737" width="7.017543859649122" height="7.017543859649122" fill="url(#grad1)" />
<rect x="292.63157894736844" y="68.0701754385965" width="7.017543859649122" height="7.017543859649122" fill="url(#grad3)" />
<rect x="320.7017543859649" y="68.0701754385965" width="7.017543859649122" height="7.017543859649122" fill="url(#grad1)" />
<rect x="292.63157894736844" y="75.08771929824562" width="7.017543859649122" height="7.017543859649122" fill="url(#grad1)" />
<rect x="320.7017543859649" y="75.08771929824562" width="7.017543859649122" height="7.017543859649122" fill="url(#grad2)" />
<rect x="299.64912280701753" y="82.10526315789474" width="7.017543859649122" height="7.017543859649122" fill="url(#grad3)" />
<rect x="306.66666666666663" y="82.10526315789474" width="7.017543859649122" height="7.017543859649122" fill="url(#grad1)" />
<rect x="313.6842105263158" y="82.10526315789474" width="7.017543859649122" height="7.017543859649122" fill="url(#grad2)" />
<rect x="334.7368421052631" y="40.0" width="7.017543859649122" height="7.017543859649122" fill="url(#grad1)" />
<rect x="334.7368421052631" y="47.01754385964912" width="7.017543859649122" height="7.017543859649122" fill="url(#grad1)" />
<rect x="334.7368421052631" y="54.03508771929825" width="7.017543859649122" height="7.017543859649122" fill="url(#grad3)" />
<rect x="334.7368421052631" y="61.05263157894737" width="7.017543859649122" height="7.017543859649122" fill="url(#grad1)" />
<rect x="334.7368421052631" y="68.0701754385965" width="7.017543859649122" height="7.017543859649122" fill="url(#grad3)" />
<rect x="334.7368421052631" y="75.08771929824562" width="7.017543859649122" height="7.017543859649122" fill="url(#grad2)" />
<rect x="334.7368421052631" y="82.10526315789474" width="7.017543859649122" height="7.017543859649122" fill="url(#grad3)" />
<rect x="341.7543859649123" y="82.10526315789474" width="7.017543859649122" height="7.017543859649122" fill="url(#grad1)" />
<rect x="348.77192982456137" y="82.10526315789474" width="7.017543859649122" height="7.017543859649122" fill="url(#grad3)" />
<rect x="355.7894736842105" y="82.10526315789474" width="7.017543859649122" height="7.017543859649122" fill="url(#grad2)" />
<rect x="362.8070175438596" y="82.10526315789474" width="7.017543859649122" height="7.017543859649122" fill="url(#grad2)" />
<rect x="376.84210526315786" y="40.0" width="7.017543859649122" height="7.017543859649122" fill="url(#grad1)" />
<rect x="376.84210526315786" y="47.01754385964912" width="7.017543859649122" height="7.017543859649122" fill="url(#grad1)" />
<rect x="376.84210526315786" y="54.03508771929825" width="7.017543859649122" height="7.017543859649122" fill="url(#grad1)" />
<rect x="376.84210526315786" y="61.05263157894737" width="7.017543859649122" height="7.017543859649122" fill="url(#grad3)" />
<rect x="376.84210526315786" y="68.0701754385965" width="7.017543859649122" height="7.017543859649122" fill="url(#grad1)" />
<rect x="376.84210526315786" y="75.08771929824562" width="7.017543859649122" height="7.017543859649122" fill="url(#grad1)" />
<rect x="376.84210526315786" y="82.10526315789474" width="7.017543859649122" height="7.017543859649122" fill="url(#grad3)" />
<rect x="383.859649122807" y="82.10526315789474" width="7.017543859649122" height="7.017543859649122" fill="url(#grad1)" />
<rect x="390.8771929824561" y="82.10526315789474" width="7.017543859649122" height="7.017543859649122" fill="url(#grad2)" />
<rect x="397.89473684210526" y="82.10526315789474" width="7.017543859649122" height="7.017543859649122" fill="url(#grad3)" />
<rect x="404.91228070175436" y="82.10526315789474" width="7.017543859649122" height="7.017543859649122" fill="url(#grad2)" />
<rect x="468.0701754385965" y="40.0" width="7.017543859649122" height="7.017543859649122" fill="url(#grad1)" />
<rect x="475.0877192982456" y="40.0" width="7.017543859649122" height="7.017543859649122" fill="url(#grad3)" />
<rect x="482.10526315789474" y="40.0" width="7.017543859649122" height="7.017543859649122" fill="url(#grad1)" />
<rect x="489.12280701754383" y="40.0" width="7.017543859649122" height="7.017543859649122" fill="url(#grad2)" />
<rect x="461.05263157894734" y="47.01754385964912" width="7.017543859649122" height="7.017543859649122" fill="url(#grad1)" />
<rect x="461.05263157894734" y="54.03508771929825" width="7.017543859649122" height="7.017543859649122" fill="url(#grad1)" />
<rect x="468.0701754385965" y="61.05263157894737" width="7.017543859649122" height="7.017543859649122" fill="url(#grad3)" />
<rect x="475.0877192982456" y="61.05263157894737" width="7.017543859649122" height="7.017543859649122" fill="url(#grad3)" />
<rect x="482.10526315789474" y="61.05263157894737" width="7.017543859649122" height="7.017543859649122" fill="url(#grad1)" />
<rect x="489.12280701754383" y="68.0701754385965" width="7.017543859649122" height="7.017543859649122" fill="url(#grad1)" />
<rect x="489.12280701754383" y="75.08771929824562" width="7.017543859649122" height="7.017543859649122" fill="url(#grad1)" />
<rect x="461.05263157894734" y="82.10526315789474" width="7.017543859649122" height="7.017543859649122" fill="url(#grad3)" />
<rect x="468.0701754385965" y="82.10526315789474" width="7.017543859649122" height="7.017543859649122" fill="url(#grad2)" />
<rect x="475.0877192982456" y="82.10526315789474" width="7.017543859649122" height="7.017543859649122" fill="url(#grad3)" />
<rect x="482.10526315789474" y="82.10526315789474" width="7.017543859649122" height="7.017543859649122" fill="url(#grad2)" />
<rect x="503.1578947368421" y="40.0" width="7.017543859649122" height="7.017543859649122" fill="url(#grad3)" />
<rect x="510.1754385964912" y="40.0" width="7.017543859649122" height="7.017543859649122" fill="url(#grad2)" />
<rect x="517.1929824561403" y="40.0" width="7.017543859649122" height="7.017543859649122" fill="url(#grad1)" />
<rect x="524.2105263157894" y="40.0" width="7.017543859649122" height="7.017543859649122" fill="url(#grad2)" />
<rect x="531.2280701754386" y="40.0" width="7.017543859649122" height="7.017543859649122" fill="url(#grad3)" />
<rect x="517.1929824561403" y="47.01754385964912" width="7.017543859649122" height="7.017543859649122" fill="url(#grad1)" />
<rect x="517.1929824561403" y="54.03508771929825" width="7.017543859649122" height="7.017543859649122" fill="url(#grad1)" />
<rect x="517.1929824561403" y="61.05263157894737" width="7.017543859649122" height="7.017543859649122" fill="url(#grad2)" />
<rect x="517.1929824561403" y="68.0701754385965" width="7.017543859649122" height="7.017543859649122" fill="url(#grad3)" />
<rect x="517.1929824561403" y="75.08771929824562" width="7.017543859649122" height="7.017543859649122" fill="url(#grad3)" />
<rect x="517.1929824561403" y="82.10526315789474" width="7.017543859649122" height="7.017543859649122" fill="url(#grad2)" />
<rect x="552.280701754386" y="40.0" width="7.017543859649122" height="7.017543859649122" fill="url(#grad1)" />
<rect x="559.2982456140351" y="40.0" width="7.017543859649122" height="7.017543859649122" fill="url(#grad2)" />
<rect x="566.3157894736842" y="40.0" width="7.017543859649122" height="7.017543859649122" fill="url(#grad2)" />
<rect x="545.2631578947369" y="47.01754385964912" width="7.017543859649122" height="7.017543859649122" fill="url(#grad1)" />
<rect x="573.3333333333333" y="47.01754385964912" width="7.017543859649122" height="7.017543859649122" fill="url(#grad1)" />
<rect x="545.2631578947369" y="54.03508771929825" width="7.017543859649122" height="7.017543859649122" fill="url(#grad1)" />
<rect x="573.3333333333333" y="54.03508771929825" width="7.017543859649122" height="7.017543859649122" fill="url(#grad2)" />
<rect x="545.2631578947369" y="61.05263157894737" width="7.017543859649122" height="7.017543859649122" fill="url(#grad3)" />
<rect x="552.280701754386" y="61.05263157894737" width="7.017543859649122" height="7.017543859649122" fill="url(#grad1)" />
<rect x="559.2982456140351" y="61.05263157894737" width="7.017543859649122" height="7.017543859649122" fill="url(#grad3)" />
<rect x="566.3157894736842" y="61.05263157894737" width="7.017543859649122" height="7.017543859649122" fill="url(#grad2)" />
<rect x="573.3333333333333" y="61.05263157894737" width="7.017543859649122" height="7.017543859649122" fill="url(#grad2)" />
<rect x="545.2631578947369" y="68.0701754385965" width="7.017543859649122" height="7.017543859649122" fill="url(#grad1)" />
<rect x="573.3333333333333" y="68.0701754385965" width="7.017543859649122" height="7.017543859649122" fill="url(#grad3)" />
<rect x="545.2631578947369" y="75.08771929824562" width="7.017543859649122" height="7.017543859649122" fill="url(#grad1)" />
<rect x="573.3333333333333" y="75.08771929824562" width="7.017543859649122" height="7.017543859649122" fill="url(#grad2)" />
<rect x="545.2631578947369" y="82.10526315789474" width="7.017543859649122" height="7.017543859649122" fill="url(#grad3)" />
<rect x="573.3333333333333" y="82.10526315789474" width="7.017543859649122" height="7.017543859649122" fill="url(#grad1)" />
<rect x="594.3859649122807" y="40.0" width="7.017543859649122" height="7.017543859649122" fill="url(#grad3)" />
<rect x="601.4035087719298" y="40.0" width="7.017543859649122" height="7.017543859649122" fill="url(#grad2)" />
<rect x="608.421052631579" y="40.0" width="7.017543859649122" height="7.017543859649122" fill="url(#grad1)" />
<rect x="587.3684210526316" y="47.01754385964912" width="7.017543859649122" height="7.017543859649122" fill="url(#grad1)" />
<rect x="615.438596491228" y="47.01754385964912" width="7.017543859649122" height="7.017543859649122" fill="url(#grad1)" />
<rect x="587.3684210526316" y="54.03508771929825" width="7.017543859649122" height="7.017543859649122" fill="url(#grad1)" />
<rect x="587.3684210526316" y="61.05263157894737" width="7.017543859649122" height="7.017543859649122" fill="url(#grad2)" />
<rect x="587.3684210526316" y="68.0701754385965" width="7.017543859649122" height="7.017543859649122" fill="url(#grad1)" />
<rect x="587.3684210526316" y="75.08771929824562" width="7.017543859649122" height="7.017543859649122" fill="url(#grad2)" />
<rect x="615.438596491228" y="75.08771929824562" width="7.017543859649122" height="7.017543859649122" fill="url(#grad2)" />
<rect x="594.3859649122807" y="82.10526315789474" width="7.017543859649122" height="7.017543859649122" fill="url(#grad1)" />
<rect x="601.4035087719298" y="82.10526315789474" width="7.017543859649122" height="7.017543859649122" fill="url(#grad3)" />
<rect x="608.421052631579" y="82.10526315789474" width="7.017543859649122" height="7.017543859649122" fill="url(#grad1)" />
<rect x="629.4736842105262" y="40.0" width="7.017543859649122" height="7.017543859649122" fill="url(#grad1)" />
<rect x="657.5438596491227" y="40.0" width="7.017543859649122" height="7.017543859649122" fill="url(#grad2)" />
<rect x="629.4736842105262" y="47.01754385964912" width="7.017543859649122" height="7.017543859649122" fill="url(#grad1)" />
<rect x="650.5263157894736" y="47.01754385964912" width="7.017543859649122" height="7.017543859649122" fill="url(#grad1)" />
<rect x="629.4736842105262" y="54.03508771929825" width="7.017543859649122" height="7.017543859649122" fill="url(#grad2)" />
<rect x="643.5087719298245" y="54.03508771929825" width="7.017543859649122" height="7.017543859649122" fill="url(#grad2)" />
<rect x="629.4736842105262" y="61.05263157894737" width="7.017543859649122" height="7.017543859649122" fill="url(#grad3)" />
<rect x="636.4912280701755" y="61.05263157894737" width="7.017543859649122" height="7.017543859649122" fill="url(#grad3)" />
<rect x="629.4736842105262" y="68.0701754385965" width="7.017543859649122" height="7.017543859649122" fill="url(#grad2)" />
<rect x="643.5087719298245" y="68.0701754385965" width="7.017543859649122" height="7.017543859649122" fill="url(#grad3)" />
<rect x="629.4736842105262" y="75.08771929824562" width="7.017543859649122" height="7.017543859649122" fill="url(#grad2)" />
<rect x="650.5263157894736" y="75.08771929824562" width="7.017543859649122" height="7.017543859649122" fill="url(#grad1)" />
<rect x="629.4736842105262" y="82.10526315789474" width="7.017543859649122" height="7.017543859649122" fill="url(#grad1)" />
<rect x="657.5438596491227" y="82.10526315789474" width="7.017543859649122" height="7.017543859649122" fill="url(#grad2)" />
<rect x="713.6842105263157" y="40.0" width="7.017543859649122" height="7.017543859649122" fill="url(#grad2)" />
<rect x="720.7017543859648" y="40.0" width="7.017543859649122" height="7.017543859649122" fill="url(#grad2)" />
<rect x="727.719298245614" y="40.0" width="7.017543859649122" height="7.017543859649122" fill="url(#grad1)" />
<rect x="734.7368421052631" y="40.0" width="7.017543859649122" height="7.017543859649122" fill="url(#grad2)" />
<rect x="713.6842105263157" y="47.01754385964912" width="7.017543859649122" height="7.017543859649122" fill="url(#grad3)" />
<rect x="741.7543859649122" y="47.01754385964912" width="7.017543859649122" height="7.017543859649122" fill="url(#grad2)" />
<rect x="713.6842105263157" y="54.03508771929825" width="7.017543859649122" height="7.017543859649122" fill="url(#grad1)" />
<rect x="741.7543859649122" y="54.03508771929825" width="7.017543859649122" height="7.017543859649122" fill="url(#grad2)" />
<rect x="713.6842105263157" y="61.05263157894737" width="7.017543859649122" height="7.017543859649122" fill="url(#grad3)" />
<rect x="741.7543859649122" y="61.05263157894737" width="7.017543859649122" height="7.017543859649122" fill="url(#grad2)" />
<rect x="713.6842105263157" y="68.0701754385965" width="7.017543859649122" height="7.017543859649122" fill="url(#grad3)" />
<rect x="741.7543859649122" y="68.0701754385965" width="7.017543859649122" height="7.017543859649122" fill="url(#grad3)" />
<rect x="713.6842105263157" y="75.08771929824562" width="7.017543859649122" height="7.017543859649122" fill="url(#grad2)" />
<rect x="741.7543859649122" y="75.08771929824562" width="7.017543859649122" height="7.017543859649122" fill="url(#grad3)" />
<rect x="713.6842105263157" y="82.10526315789474" width="7.017543859649122" height="7.017543859649122" fill="url(#grad1)" />
<rect x="720.7017543859648" y="82.10526315789474" width="7.017543859649122" height="7.017543859649122" fill="url(#grad3)" />
<rect x="727.719298245614" y="82.10526315789474" width="7.017543859649122" height="7.017543859649122" fill="url(#grad2)" />
<rect x="734.7368421052631" y="82.10526315789474" width="7.017543859649122" height="7.017543859649122" fill="url(#grad1)" />
<rect x="755.7894736842105" y="40.0" width="7.017543859649122" height="7.017543859649122" fill="url(#grad2)" />
<rect x="762.8070175438596" y="40.0" width="7.017543859649122" height="7.017543859649122" fill="url(#grad2)" />
<rect x="769.8245614035087" y="40.0" width="7.017543859649122" height="7.017543859649122" fill="url(#grad1)" />
<rect x="776.8421052631578" y="40.0" width="7.017543859649122" height="7.017543859649122" fill="url(#grad1)" />
<rect x="783.859649122807" y="40.0" width="7.017543859649122" height="7.017543859649122" fill="url(#grad2)" />
<rect x="755.7894736842105" y="47.01754385964912" width="7.017543859649122" height="7.017543859649122" fill="url(#grad1)" />
<rect x="755.7894736842105" y="54.03508771929825" width="7.017543859649122" height="7.017543859649122" fill="url(#grad2)" />
<rect x="755.7894736842105" y="61.05263157894737" width="7.017543859649122" height="7.017543859649122" fill="url(#grad2)" />
<rect x="762.8070175438596" y="61.05263157894737" width="7.017543859649122" height="7.017543859649122" fill="url(#grad3)" />
<rect x="769.8245614035087" y="61.05263157894737" width="7.017543859649122" height="7.017543859649122" fill="url(#grad3)" />
<rect x="776.8421052631578" y="61.05263157894737" width="7.017543859649122" height="7.017543859649122" fill="url(#grad1)" />
<rect x="755.7894736842105" y="68.0701754385965" width="7.017543859649122" height="7.017543859649122" fill="url(#grad3)" />
<rect x="755.7894736842105" y="75.08771929824562" width="7.017543859649122" height="7.017543859649122" fill="url(#grad3)" />
<rect x="755.7894736842105" y="82.10526315789474" width="7.017543859649122" height="7.017543859649122" fill="url(#grad1)" />
<rect x="762.8070175438596" y="82.10526315789474" width="7.017543859649122" height="7.017543859649122" fill="url(#grad1)" />
<rect x="769.8245614035087" y="82.10526315789474" width="7.017543859649122" height="7.017543859649122" fill="url(#grad1)" />
<rect x="776.8421052631578" y="82.10526315789474" width="7.017543859649122" height="7.017543859649122" fill="url(#grad1)" />
<rect x="783.859649122807" y="82.10526315789474" width="7.017543859649122" height="7.017543859649122" fill="url(#grad2)" />
<rect x="797.8947368421052" y="40.0" width="7.017543859649122" height="7.017543859649122" fill="url(#grad2)" />
<rect x="825.9649122807017" y="40.0" width="7.017543859649122" height="7.017543859649122" fill="url(#grad2)" />
<rect x="797.8947368421052" y="47.01754385964912" width="7.017543859649122" height="7.017543859649122" fill="url(#grad3)" />
<rect x="825.9649122807017" y="47.01754385964912" width="7.017543859649122" height="7.017543859649122" fill="url(#grad3)" />
<rect x="797.8947368421052" y="54.03508771929825" width="7.017543859649122" height="7.017543859649122" fill="url(#grad1)" />
<rect x="825.9649122807017" y="54.03508771929825" width="7.017543859649122" height="7.017543859649122" fill="url(#grad2)" />
<rect x="797.8947368421052" y="61.05263157894737" width="7.017543859649122" height="7.017543859649122" fill="url(#grad3)" />
<rect x="825.9649122807017" y="61.05263157894737" width="7.017543859649122" height="7.017543859649122" fill="url(#grad3)" />
<rect x="797.8947368421052" y="68.0701754385965" width="7.017543859649122" height="7.017543859649122" fill="url(#grad2)" />
<rect x="825.9649122807017" y="68.0701754385965" width="7.017543859649122" height="7.017543859649122" fill="url(#grad3)" />
<rect x="804.9122807017543" y="75.08771929824562" width="7.017543859649122" height="7.017543859649122" fill="url(#grad1)" />
<rect x="818.9473684210526" y="75.08771929824562" width="7.017543859649122" height="7.017543859649122" fill="url(#grad1)" />
<rect x="811.9298245614035" y="82.10526315789474" width="7.017543859649122" height="7.017543859649122" fill="url(#grad1)" />
<rect x="0" y="0" width="880" height="190" fill="none" stroke="#196bbd" stroke-width="4" />
</svg>