<svg width="880" height="190" xmlns="http://www.w3.org/2000/svg">

    <defs>
      <linearGradient id="grad1" x1="0%" y1="0%" x2="100%" y2="0%">
        <stop offset="0%" stop-color="#ecd2bb"/>
        <stop offset="100%" stop-color="#a0aeee"/>
      </linearGradient>
      <linearGradient id="grad2" x1="0%" y1="0%" x2="100%" y2="0%">
        <stop offset="0%" stop-color="#a0aeee"/>
        <stop offset="100%" stop-color="#120fc7"/>
      </linearGradient>
      <linearGradient id="grad3" x1="0%" y1="0%" x2="100%" y2="0%">
        <stop offset="0%" stop-color="#5771ec"/>
        <stop offset="100%" stop-color="#ecd2bb"/>
      </linearGradient>
    </defs>
    
<rect width="880" height="190" fill="#0d1117" />
<rect x="40.00000000000006" y="70.43859649122807" width="7.017543859649122" height="7.017543859649122" fill="url(#grad3)" />
<rect x="47.01754385964918" y="70.43859649122807" width="7.017543859649122" height="7.017543859649122" fill="url(#grad3)" />
<rect x="54.0350877192983" y="70.43859649122807" width="7.017543859649122" height="7.017543859649122" fill="url(#grad3)" />
<rect x="61.05263157894743" y="70.43859649122807" width="7.017543859649122" height="7.017543859649122" fill="url(#grad1)" />
<rect x="68.07017543859655" y="70.43859649122807" width="7.017543859649122" height="7.017543859649122" fill="url(#grad1)" />
<rect x="54.0350877192983" y="77.45614035087719" width="7.017543859649122" height="7.017543859649122" fill="url(#grad3)" />
<rect x="54.0350877192983" y="84.47368421052632" width="7.017543859649122" height="7.017543859649122" fill="url(#grad2)" />
<rect x="54.0350877192983" y="91.49122807017544" width="7.017543859649122" height="7.017543859649122" fill="url(#grad1)" />
<rect x="54.0350877192983" y="98.50877192982456" width="7.017543859649122" height="7.017543859649122" fill="url(#grad2)" />
<rect x="54.0350877192983" y="105.52631578947367" width="7.017543859649122" height="7.017543859649122" fill="url(#grad3)" />
<rect x="40.00000000000006" y="112.5438596491228" width="7.017543859649122" height="7.017543859649122" fill="url(#grad1)" />
<rect x="47.01754385964918" y="112.5438596491228" width="7.017543859649122" height="7.017543859649122" fill="url(#grad1)" />
<rect x="54.0350877192983" y="112.5438596491228" width="7.017543859649122" height="7.017543859649122" fill="url(#grad2)" />
<rect x="61.05263157894743" y="112.5438596491228" width="7.017543859649122" height="7.017543859649122" fill="url(#grad1)" />
<rect x="68.07017543859655" y="112.5438596491228" width="7.017543859649122" height="7.017543859649122" fill="url(#grad2)" />
<rect x="131.22807017543863" y="70.43859649122807" width="7.017543859649122" height="7.017543859649122" fill="url(#grad1)" />
<rect x="138.24561403508778" y="70.43859649122807" width="7.017543859649122" height="7.017543859649122" fill="url(#grad2)" />
<rect x="145.26315789473688" y="70.43859649122807" width="7.017543859649122" height="7.017543859649122" fill="url(#grad1)" />
<rect x="124.21052631578952" y="77.45614035087719" width="7.017543859649122" height="7.017543859649122" fill="url(#grad3)" />
<rect x="152.28070175438603" y="77.45614035087719" width="7.017543859649122" height="7.017543859649122" fill="url(#grad2)" />
<rect x="124.21052631578952" y="84.47368421052632" width="7.017543859649122" height="7.017543859649122" fill="url(#grad3)" />
<rect x="152.28070175438603" y="84.47368421052632" width="7.017543859649122" height="7.017543859649122" fill="url(#grad3)" />
<rect x="124.21052631578952" y="91.49122807017544" width="7.017543859649122" height="7.017543859649122" fill="url(#grad1)" />
<rect x="131.22807017543863" y="91.49122807017544" width="7.017543859649122" height="7.017543859649122" fill="url(#grad1)" />
<rect x="138.24561403508778" y="91.49122807017544" width="7.017543859649122" height="7.017543859649122" fill="url(#grad2)" />
<rect x="145.26315789473688" y="91.49122807017544" width="7.017543859649122" height="7.017543859649122" fill="url(#grad1)" />
<rect x="152.28070175438603" y="91.49122807017544" width="7.017543859649122" height="7.017543859649122" fill="url(#grad2)" />
<rect x="124.21052631578952" y="98.50877192982456" width="7.017543859649122" height="7.017543859649122" fill="url(#grad1)" />
<rect x="152.28070175438603" y="98.50877192982456" width="7.017543859649122" height="7.017543859649122" fill="url(#grad3)" />
<rect x="124.21052631578952" y="105.52631578947367" width="7.017543859649122" height="7.017543859649122" fill="url(#grad3)" />
<rect x="152.28070175438603" y="105.52631578947367" width="7.017543859649122" height="7.017543859649122" fill="url(#grad3)" />
<rect x="124.21052631578952" y="112.5438596491228" width="7.017543859649122" height="7.017543859649122" fill="url(#grad3)" />
<rect x="152.28070175438603" y="112.5438596491228" width="7.017543859649122" height="7.017543859649122" fill="url(#grad2)" />
<rect x="166.31578947368428" y="70.43859649122807" width="7.017543859649122" height="7.017543859649122" fill="url(#grad2)" />
<rect x="194.38596491228074" y="70.43859649122807" width="7.017543859649122" height="7.017543859649122" fill="url(#grad3)" />
<rect x="166.31578947368428" y="77.45614035087719" width="7.017543859649122" height="7.017543859649122" fill="url(#grad1)" />
<rect x="173.33333333333337" y="77.45614035087719" width="7.017543859649122" height="7.017543859649122" fill="url(#grad2)" />
<rect x="187.36842105263162" y="77.45614035087719" width="7.017543859649122" height="7.017543859649122" fill="url(#grad1)" />
<rect x="194.38596491228074" y="77.45614035087719" width="7.017543859649122" height="7.017543859649122" fill="url(#grad3)" />
<rect x="166.31578947368428" y="84.47368421052632" width="7.017543859649122" height="7.017543859649122" fill="url(#grad1)" />
<rect x="180.3508771929825" y="84.47368421052632" width="7.017543859649122" height="7.017543859649122" fill="url(#grad3)" />
<rect x="194.38596491228074" y="84.47368421052632" width="7.017543859649122" height="7.017543859649122" fill="url(#grad3)" />
<rect x="166.31578947368428" y="91.49122807017544" width="7.017543859649122" height="7.017543859649122" fill="url(#grad1)" />
<rect x="180.3508771929825" y="91.49122807017544" width="7.017543859649122" height="7.017543859649122" fill="url(#grad1)" />
<rect x="194.38596491228074" y="91.49122807017544" width="7.017543859649122" height="7.017543859649122" fill="url(#grad3)" />
<rect x="166.31578947368428" y="98.50877192982456" width="7.017543859649122" height="7.017543859649122" fill="url(#grad3)" />
<rect x="194.38596491228074" y="98.50877192982456" width="7.017543859649122" height="7.017543859649122" fill="url(#grad1)" />
<rect x="166.31578947368428" y="105.52631578947367" width="7.017543859649122" height="7.017543859649122" fill="url(#grad3)" />
<rect x="194.38596491228074" y="105.52631578947367" width="7.017543859649122" height="7.017543859649122" fill="url(#grad3)" />
<rect x="166.31578947368428" y="112.5438596491228" width="7.017543859649122" height="7.017543859649122" fill="url(#grad3)" />
<rect x="194.38596491228074" y="112.5438596491228" width="7.017543859649122" height="7.017543859649122" fill="url(#grad1)" />
<rect x="250.52631578947373" y="70.43859649122807" width="7.017543859649122" height="7.017543859649122" fill="url(#grad3)" />
<rect x="257.54385964912285" y="70.43859649122807" width="7.017543859649122" height="7.017543859649122" fill="url(#grad3)" />
<rect x="264.56140350877195" y="70.43859649122807" width="7.017543859649122" height="7.017543859649122" fill="url(#grad3)" />
<rect x="271.5789473684211" y="70.43859649122807" width="7.017543859649122" height="7.017543859649122" fill="url(#grad1)" />
<rect x="278.59649122807025" y="70.43859649122807" width="7.017543859649122" height="7.017543859649122" fill="url(#grad3)" />
<rect x="250.52631578947373" y="77.45614035087719" width="7.017543859649122" height="7.017543859649122" fill="url(#grad1)" />
<rect x="250.52631578947373" y="84.47368421052632" width="7.017543859649122" height="7.017543859649122" fill="url(#grad1)" />
<rect x="250.52631578947373" y="91.49122807017544" width="7.017543859649122" height="7.017543859649122" fill="url(#grad2)" />
<rect x="257.54385964912285" y="91.49122807017544" width="7.017543859649122" height="7.017543859649122" fill="url(#grad2)" />
<rect x="264.56140350877195" y="91.49122807017544" width="7.017543859649122" height="7.017543859649122" fill="url(#grad2)" />
<rect x="271.5789473684211" y="91.49122807017544" width="7.017543859649122" height="7.017543859649122" fill="url(#grad3)" />
<rect x="250.52631578947373" y="98.50877192982456" width="7.017543859649122" height="7.017543859649122" fill="url(#grad2)" />
<rect x="250.52631578947373" y="105.52631578947367" width="7.017543859649122" height="7.017543859649122" fill="url(#grad3)" />
<rect x="250.52631578947373" y="112.5438596491228" width="7.017543859649122" height="7.017543859649122" fill="url(#grad3)" />
<rect x="292.63157894736844" y="70.43859649122807" width="7.017543859649122" height="7.017543859649122" fill="url(#grad3)" />
<rect x="320.70175438596493" y="70.43859649122807" width="7.017543859649122" height="7.017543859649122" fill="url(#grad3)" />
<rect x="292.63157894736844" y="77.45614035087719" width="7.017543859649122" height="7.017543859649122" fill="url(#grad3)" />
<rect x="320.70175438596493" y="77.45614035087719" width="7.017543859649122" height="7.017543859649122" fill="url(#grad1)" />
<rect x="292.63157894736844" y="84.47368421052632" width="7.017543859649122" height="7.017543859649122" fill="url(#grad2)" />
<rect x="320.70175438596493" y="84.47368421052632" width="7.017543859649122" height="7.017543859649122" fill="url(#grad3)" />
<rect x="292.63157894736844" y="91.49122807017544" width="7.017543859649122" height="7.017543859649122" fill="url(#grad1)" />
<rect x="320.70175438596493" y="91.49122807017544" width="7.017543859649122" height="7.017543859649122" fill="url(#grad3)" />
<rect x="292.63157894736844" y="98.50877192982456" width="7.017543859649122" height="7.017543859649122" fill="url(#grad1)" />
<rect x="320.70175438596493" y="98.50877192982456" width="7.017543859649122" height="7.017543859649122" fill="url(#grad1)" />
<rect x="292.63157894736844" y="105.52631578947367" width="7.017543859649122" height="7.017543859649122" fill="url(#grad3)" />
<rect x="320.70175438596493" y="105.52631578947367" width="7.017543859649122" height="7.017543859649122" fill="url(#grad1)" />
<rect x="299.6491228070176" y="112.5438596491228" width="7.017543859649122" height="7.017543859649122" fill="url(#grad2)" />
<rect x="306.6666666666667" y="112.5438596491228" width="7.017543859649122" height="7.017543859649122" fill="url(#grad3)" />
<rect x="313.68421052631584" y="112.5438596491228" width="7.017543859649122" height="7.017543859649122" fill="url(#grad1)" />
<rect x="334.7368421052632" y="70.43859649122807" width="7.017543859649122" height="7.017543859649122" fill="url(#grad3)" />
<rect x="334.7368421052632" y="77.45614035087719" width="7.017543859649122" height="7.017543859649122" fill="url(#grad1)" />
<rect x="334.7368421052632" y="84.47368421052632" width="7.017543859649122" height="7.017543859649122" fill="url(#grad2)" />
<rect x="334.7368421052632" y="91.49122807017544" width="7.017543859649122" height="7.017543859649122" fill="url(#grad3)" />
<rect x="334.7368421052632" y="98.50877192982456" width="7.017543859649122" height="7.017543859649122" fill="url(#grad1)" />
<rect x="334.7368421052632" y="105.52631578947367" width="7.017543859649122" height="7.017543859649122" fill="url(#grad1)" />
<rect x="334.7368421052632" y="112.5438596491228" width="7.017543859649122" height="7.017543859649122" fill="url(#grad3)" />
<rect x="341.75438596491233" y="112.5438596491228" width="7.017543859649122" height="7.017543859649122" fill="url(#grad2)" />
<rect x="348.7719298245614" y="112.5438596491228" width="7.017543859649122" height="7.017543859649122" fill="url(#grad2)" />
<rect x="355.7894736842106" y="112.5438596491228" width="7.017543859649122" height="7.017543859649122" fill="url(#grad3)" />
<rect x="362.8070175438597" y="112.5438596491228" width="7.017543859649122" height="7.017543859649122" fill="url(#grad1)" />
<rect x="376.8421052631579" y="70.43859649122807" width="7.017543859649122" height="7.017543859649122" fill="url(#grad2)" />
<rect x="376.8421052631579" y="77.45614035087719" width="7.017543859649122" height="7.017543859649122" fill="url(#grad1)" />
<rect x="376.8421052631579" y="84.47368421052632" width="7.017543859649122" height="7.017543859649122" fill="url(#grad3)" />
<rect x="376.8421052631579" y="91.49122807017544" width="7.017543859649122" height="7.017543859649122" fill="url(#grad1)" />
<rect x="376.8421052631579" y="98.50877192982456" width="7.017543859649122" height="7.017543859649122" fill="url(#grad3)" />
<rect x="376.8421052631579" y="105.52631578947367" width="7.017543859649122" height="7.017543859649122" fill="url(#grad2)" />
<rect x="376.8421052631579" y="112.5438596491228" width="7.017543859649122" height="7.017543859649122" fill="url(#grad3)" />
<rect x="383.85964912280707" y="112.5438596491228" width="7.017543859649122" height="7.017543859649122" fill="url(#grad1)" />
<rect x="390.87719298245617" y="112.5438596491228" width="7.017543859649122" height="7.017543859649122" fill="url(#grad3)" />
<rect x="397.8947368421053" y="112.5438596491228" width="7.017543859649122" height="7.017543859649122" fill="url(#grad1)" />
<rect x="404.9122807017544" y="112.5438596491228" width="7.017543859649122" height="7.017543859649122" fill="url(#grad1)" />
<rect x="468.07017543859655" y="70.43859649122807" width="7.017543859649122" height="7.017543859649122" fill="url(#grad3)" />
<rect x="475.08771929824564" y="70.43859649122807" width="7.017543859649122" height="7.017543859649122" fill="url(#grad1)" />
<rect x="482.1052631578948" y="70.43859649122807" width="7.017543859649122" height="7.017543859649122" fill="url(#grad1)" />
<rect x="489.1228070175439" y="70.43859649122807" width="7.017543859649122" height="7.017543859649122" fill="url(#grad1)" />
<rect x="461.0526315789474" y="77.45614035087719" width="7.017543859649122" height="7.017543859649122" fill="url(#grad2)" />
<rect x="461.0526315789474" y="84.47368421052632" width="7.017543859649122" height="7.017543859649122" fill="url(#grad2)" />
<rect x="468.07017543859655" y="91.49122807017544" width="7.017543859649122" height="7.017543859649122" fill="url(#grad2)" />
<rect x="475.08771929824564" y="91.49122807017544" width="7.017543859649122" height="7.017543859649122" fill="url(#grad3)" />
<rect x="482.1052631578948" y="91.49122807017544" width="7.017543859649122" height="7.017543859649122" fill="url(#grad2)" />
<rect x="489.1228070175439" y="98.50877192982456" width="7.017543859649122" height="7.017543859649122" fill="url(#grad3)" />
<rect x="489.1228070175439" y="105.52631578947367" width="7.017543859649122" height="7.017543859649122" fill="url(#grad2)" />
<rect x="461.0526315789474" y="112.5438596491228" width="7.017543859649122" height="7.017543859649122" fill="url(#grad2)" />
<rect x="468.07017543859655" y="112.5438596491228" width="7.017543859649122" height="7.017543859649122" fill="url(#grad1)" />
<rect x="475.08771929824564" y="112.5438596491228" width="7.017543859649122" height="7.017543859649122" fill="url(#grad1)" />
<rect x="482.1052631578948" y="112.5438596491228" width="7.017543859649122" height="7.017543859649122" fill="url(#grad2)" />
<rect x="503.15789473684214" y="70.43859649122807" width="7.017543859649122" height="7.017543859649122" fill="url(#grad3)" />
<rect x="510.17543859649123" y="70.43859649122807" width="7.017543859649122" height="7.017543859649122" fill="url(#grad2)" />
<rect x="517.1929824561404" y="70.43859649122807" width="7.017543859649122" height="7.017543859649122" fill="url(#grad1)" />
<rect x="524.2105263157895" y="70.43859649122807" width="7.017543859649122" height="7.017543859649122" fill="url(#grad2)" />
<rect x="531.2280701754387" y="70.43859649122807" width="7.017543859649122" height="7.017543859649122" fill="url(#grad2)" />
<rect x="517.1929824561404" y="77.45614035087719" width="7.017543859649122" height="7.017543859649122" fill="url(#grad2)" />
<rect x="517.1929824561404" y="84.47368421052632" width="7.017543859649122" height="7.017543859649122" fill="url(#grad2)" />
<rect x="517.1929824561404" y="91.49122807017544" width="7.017543859649122" height="7.017543859649122" fill="url(#grad2)" />
<rect x="517.1929824561404" y="98.50877192982456" width="7.017543859649122" height="7.017543859649122" fill="url(#grad3)" />
<rect x="517.1929824561404" y="105.52631578947367" width="7.017543859649122" height="7.017543859649122" fill="url(#grad2)" />
<rect x="517.1929824561404" y="112.5438596491228" width="7.017543859649122" height="7.017543859649122" fill="url(#grad2)" />
<rect x="552.280701754386" y="70.43859649122807" width="7.017543859649122" height="7.017543859649122" fill="url(#grad2)" />
<rect x="559.2982456140351" y="70.43859649122807" width="7.017543859649122" height="7.017543859649122" fill="url(#grad3)" />
<rect x="566.3157894736842" y="70.43859649122807" width="7.017543859649122" height="7.017543859649122" fill="url(#grad1)" />
<rect x="545.2631578947369" y="77.45614035087719" width="7.017543859649122" height="7.017543859649122" fill="url(#grad3)" />
<rect x="573.3333333333333" y="77.45614035087719" width="7.017543859649122" height="7.017543859649122" fill="url(#grad2)" />
<rect x="545.2631578947369" y="84.47368421052632" width="7.017543859649122" height="7.017543859649122" fill="url(#grad3)" />
<rect x="573.3333333333333" y="84.47368421052632" width="7.017543859649122" height="7.017543859649122" fill="url(#grad2)" />
<rect x="545.2631578947369" y="91.49122807017544" width="7.017543859649122" height="7.017543859649122" fill="url(#grad3)" />
<rect x="552.280701754386" y="91.49122807017544" width="7.017543859649122" height="7.017543859649122" fill="url(#grad3)" />
<rect x="559.2982456140351" y="91.49122807017544" width="7.017543859649122" height="7.017543859649122" fill="url(#grad1)" />
<rect x="566.3157894736842" y="91.49122807017544" width="7.017543859649122" height="7.017543859649122" fill="url(#grad2)" />
<rect x="573.3333333333333" y="91.49122807017544" width="7.017543859649122" height="7.017543859649122" fill="url(#grad1)" />
<rect x="545.2631578947369" y="98.50877192982456" width="7.017543859649122" height="7.017543859649122" fill="url(#grad3)" />
<rect x="573.3333333333333" y="98.50877192982456" width="7.017543859649122" height="7.017543859649122" fill="url(#grad1)" />
<rect x="545.2631578947369" y="105.52631578947367" width="7.017543859649122" height="7.017543859649122" fill="url(#grad2)" />
<rect x="573.3333333333333" y="105.52631578947367" width="7.017543859649122" height="7.017543859649122" fill="url(#grad1)" />
<rect x="545.2631578947369" y="112.5438596491228" width="7.017543859649122" height="7.017543859649122" fill="url(#grad3)" />
<rect x="573.3333333333333" y="112.5438596491228" width="7.017543859649122" height="7.017543859649122" fill="url(#grad2)" />
<rect x="594.3859649122808" y="70.43859649122807" width="7.017543859649122" height="7.017543859649122" fill="url(#grad2)" />
<rect x="601.4035087719299" y="70.43859649122807" width="7.017543859649122" height="7.017543859649122" fill="url(#grad3)" />
<rect x="608.421052631579" y="70.43859649122807" width="7.017543859649122" height="7.017543859649122" fill="url(#grad2)" />
<rect x="587.3684210526317" y="77.45614035087719" width="7.017543859649122" height="7.017543859649122" fill="url(#grad1)" />
<rect x="615.438596491228" y="77.45614035087719" width="7.017543859649122" height="7.017543859649122" fill="url(#grad1)" />
<rect x="587.3684210526317" y="84.47368421052632" width="7.017543859649122" height="7.017543859649122" fill="url(#grad1)" />
<rect x="587.3684210526317" y="91.49122807017544" width="7.017543859649122" height="7.017543859649122" fill="url(#grad1)" />
<rect x="587.3684210526317" y="98.50877192982456" width="7.017543859649122" height="7.017543859649122" fill="url(#grad2)" />
<rect x="587.3684210526317" y="105.52631578947367" width="7.017543859649122" height="7.017543859649122" fill="url(#grad2)" />
<rect x="615.438596491228" y="105.52631578947367" width="7.017543859649122" height="7.017543859649122" fill="url(#grad2)" />
<rect x="594.3859649122808" y="112.5438596491228" width="7.017543859649122" height="7.017543859649122" fill="url(#grad2)" />
<rect x="601.4035087719299" y="112.5438596491228" width="7.017543859649122" height="7.017543859649122" fill="url(#grad3)" />
<rect x="608.421052631579" y="112.5438596491228" width="7.017543859649122" height="7.017543859649122" fill="url(#grad1)" />
<rect x="629.4736842105262" y="70.43859649122807" width="7.017543859649122" height="7.017543859649122" fill="url(#grad1)" />
<rect x="657.5438596491229" y="70.43859649122807" width="7.017543859649122" height="7.017543859649122" fill="url(#grad1)" />
<rect x="629.4736842105262" y="77.45614035087719" width="7.017543859649122" height="7.017543859649122" fill="url(#grad2)" />
<rect x="650.5263157894738" y="77.45614035087719" width="7.017543859649122" height="7.017543859649122" fill="url(#grad1)" />
<rect x="629.4736842105262" y="84.47368421052632" width="7.017543859649122" height="7.017543859649122" fill="url(#grad2)" />
<rect x="643.5087719298247" y="84.47368421052632" width="7.017543859649122" height="7.017543859649122" fill="url(#grad2)" />
<rect x="629.4736842105262" y="91.49122807017544" width="7.017543859649122" height="7.017543859649122" fill="url(#grad1)" />
<rect x="636.4912280701756" y="91.49122807017544" width="7.017543859649122" height="7.017543859649122" fill="url(#grad1)" />
<rect x="629.4736842105262" y="98.50877192982456" width="7.017543859649122" height="7.017543859649122" fill="url(#grad3)" />
<rect x="643.5087719298247" y="98.50877192982456" width="7.017543859649122" height="7.017543859649122" fill="url(#grad2)" />
<rect x="629.4736842105262" y="105.52631578947367" width="7.017543859649122" height="7.017543859649122" fill="url(#grad3)" />
<rect x="650.5263157894738" y="105.52631578947367" width="7.017543859649122" height="7.017543859649122" fill="url(#grad3)" />
<rect x="629.4736842105262" y="112.5438596491228" width="7.017543859649122" height="7.017543859649122" fill="url(#grad2)" />
<rect x="657.5438596491229" y="112.5438596491228" width="7.017543859649122" height="7.017543859649122" fill="url(#grad2)" />
<rect x="713.6842105263158" y="70.43859649122807" width="7.017543859649122" height="7.017543859649122" fill="url(#grad3)" />
<rect x="720.7017543859649" y="70.43859649122807" width="7.017543859649122" height="7.017543859649122" fill="url(#grad2)" />
<rect x="727.719298245614" y="70.43859649122807" width="7.017543859649122" height="7.017543859649122" fill="url(#grad1)" />
<rect x="734.7368421052631" y="70.43859649122807" width="7.017543859649122" height="7.017543859649122" fill="url(#grad2)" />
<rect x="713.6842105263158" y="77.45614035087719" width="7.017543859649122" height="7.017543859649122" fill="url(#grad3)" />
<rect x="741.7543859649122" y="77.45614035087719" width="7.017543859649122" height="7.017543859649122" fill="url(#grad3)" />
<rect x="713.6842105263158" y="84.47368421052632" width="7.017543859649122" height="7.017543859649122" fill="url(#grad3)" />
<rect x="741.7543859649122" y="84.47368421052632" width="7.017543859649122" height="7.017543859649122" fill="url(#grad1)" />
<rect x="713.6842105263158" y="91.49122807017544" width="7.017543859649122" height="7.017543859649122" fill="url(#grad2)" />
<rect x="741.7543859649122" y="91.49122807017544" width="7.017543859649122" height="7.017543859649122" fill="url(#grad2)" />
<rect x="713.6842105263158" y="98.50877192982456" width="7.017543859649122" height="7.017543859649122" fill="url(#grad2)" />
<rect x="741.7543859649122" y="98.50877192982456" width="7.017543859649122" height="7.017543859649122" fill="url(#grad3)" />
<rect x="713.6842105263158" y="105.52631578947367" width="7.017543859649122" height="7.017543859649122" fill="url(#grad2)" />
<rect x="741.7543859649122" y="105.52631578947367" width="7.017543859649122" height="7.017543859649122" fill="url(#grad3)" />
<rect x="713.6842105263158" y="112.5438596491228" width="7.017543859649122" height="7.017543859649122" fill="url(#grad2)" />
<rect x="720.7017543859649" y="112.5438596491228" width="7.017543859649122" height="7.017543859649122" fill="url(#grad2)" />
<rect x="727.719298245614" y="112.5438596491228" width="7.017543859649122" height="7.017543859649122" fill="url(#grad1)" />
<rect x="734.7368421052631" y="112.5438596491228" width="7.017543859649122" height="7.017543859649122" fill="url(#grad2)" />
<rect x="755.7894736842106" y="70.43859649122807" width="7.017543859649122" height="7.017543859649122" fill="url(#grad3)" />
<rect x="762.8070175438597" y="70.43859649122807" width="7.017543859649122" height="7.017543859649122" fill="url(#grad1)" />
<rect x="769.8245614035088" y="70.43859649122807" width="7.017543859649122" height="7.017543859649122" fill="url(#grad1)" />
<rect x="776.8421052631579" y="70.43859649122807" width="7.017543859649122" height="7.017543859649122" fill="url(#grad1)" />
<rect x="783.859649122807" y="70.43859649122807" width="7.017543859649122" height="7.017543859649122" fill="url(#grad2)" />
<rect x="755.7894736842106" y="77.45614035087719" width="7.017543859649122" height="7.017543859649122" fill="url(#grad3)" />
<rect x="755.7894736842106" y="84.47368421052632" width="7.017543859649122" height="7.017543859649122" fill="url(#grad3)" />
<rect x="755.7894736842106" y="91.49122807017544" width="7.017543859649122" height="7.017543859649122" fill="url(#grad3)" />
<rect x="762.8070175438597" y="91.49122807017544" width="7.017543859649122" height="7.017543859649122" fill="url(#grad3)" />
<rect x="769.8245614035088" y="91.49122807017544" width="7.017543859649122" height="7.017543859649122" fill="url(#grad1)" />
<rect x="776.8421052631579" y="91.49122807017544" width="7.017543859649122" height="7.017543859649122" fill="url(#grad3)" />
<rect x="755.7894736842106" y="98.50877192982456" width="7.017543859649122" height="7.017543859649122" fill="url(#grad3)" />
<rect x="755.7894736842106" y="105.52631578947367" width="7.017543859649122" height="7.017543859649122" fill="url(#grad2)" />
<rect x="755.7894736842106" y="112.5438596491228" width="7.017543859649122" height="7.017543859649122" fill="url(#grad2)" />
<rect x="762.8070175438597" y="112.5438596491228" width="7.017543859649122" height="7.017543859649122" fill="url(#grad1)" />
<rect x="769.8245614035088" y="112.5438596491228" width="7.017543859649122" height="7.017543859649122" fill="url(#grad2)" />
<rect x="776.8421052631579" y="112.5438596491228" width="7.017543859649122" height="7.017543859649122" fill="url(#grad3)" />
<rect x="783.859649122807" y="112.5438596491228" width="7.017543859649122" height="7.017543859649122" fill="url(#grad3)" />
<rect x="797.8947368421052" y="70.43859649122807" width="7.017543859649122" height="7.017543859649122" fill="url(#grad2)" />
<rect x="825.9649122807018" y="70.43859649122807" width="7.017543859649122" height="7.017543859649122" fill="url(#grad1)" />
<rect x="797.8947368421052" y="77.45614035087719" width="7.017543859649122" height="7.017543859649122" fill="url(#grad1)" />
<rect x="825.9649122807018" y="77.45614035087719" width="7.017543859649122" height="7.017543859649122" fill="url(#grad1)" />
<rect x="797.8947368421052" y="84.47368421052632" width="7.017543859649122" height="7.017543859649122" fill="url(#grad2)" />
<rect x="825.9649122807018" y="84.47368421052632" width="7.017543859649122" height="7.017543859649122" fill="url(#grad2)" />
<rect x="797.8947368421052" y="91.49122807017544" width="7.017543859649122" height="7.017543859649122" fill="url(#grad1)" />
<rect x="825.9649122807018" y="91.49122807017544" width="7.017543859649122" height="7.017543859649122" fill="url(#grad2)" />
<rect x="797.8947368421052" y="98.50877192982456" width="7.017543859649122" height="7.017543859649122" fill="url(#grad2)" />
<rect x="825.9649122807018" y="98.50877192982456" width="7.017543859649122" height="7.017543859649122" fill="url(#grad3)" />
<rect x="804.9122807017543" y="105.52631578947367" width="7.017543859649122" height="7.017543859649122" fill="url(#grad1)" />
<rect x="818.9473684210527" y="105.52631578947367" width="7.017543859649122" height="7.017543859649122" fill="url(#grad1)" />
<rect x="811.9298245614036" y="112.5438596491228" width="7.017543859649122" height="7.017543859649122" fill="url(#grad3)" />
<rect 
    x="0" y="0" 
    width="880" height="190" 
    fill="none" 
    stroke="#ecd2bb" 
    stroke-width="2" 
    stroke-dasharray="10,5"
    rx="20" ry="20"
/>
</svg>